<svg viewBox="0 0 256 256" fill="none" xmlns="http://www.w3.org/2000/svg"><g clip-path="url(#clip0_39_621)"><path d="M194.922 79.8281L163.672 48.5781C163.091 47.9979 162.402 47.5378 161.643 47.2241C160.884 46.9105 160.071 46.7494 159.25 46.75H96.75C93.4348 46.75 90.2554 48.067 87.9112 50.4112C85.567 52.7554 84.25 55.9348 84.25 59.25V71.75H71.75C68.4348 71.75 65.2554 73.067 62.9112 75.4112C60.567 77.7554 59.25 80.9348 59.25 84.25V196.75C59.25 200.065 60.567 203.245 62.9112 205.589C65.2554 207.933 68.4348 209.25 71.75 209.25H159.25C162.565 209.25 165.745 207.933 168.089 205.589C170.433 203.245 171.75 200.065 171.75 196.75V184.25H184.25C187.565 184.25 190.745 182.933 193.089 180.589C195.433 178.245 196.75 175.065 196.75 171.75V84.25C196.751 83.429 196.59 82.6159 196.276 81.8572C195.962 81.0985 195.502 80.409 194.922 79.8281ZM134.25 178H96.75C95.0924 178 93.5027 177.342 92.3306 176.169C91.1585 174.997 90.5 173.408 90.5 171.75C90.5 170.092 91.1585 168.503 92.3306 167.331C93.5027 166.158 95.0924 165.5 96.75 165.5H134.25C135.908 165.5 137.497 166.158 138.669 167.331C139.842 168.503 140.5 170.092 140.5 171.75C140.5 173.408 139.842 174.997 138.669 176.169C137.497 177.342 135.908 178 134.25 178ZM134.25 153H96.75C95.0924 153 93.5027 152.342 92.3306 151.169C91.1585 149.997 90.5 148.408 90.5 146.75C90.5 145.092 91.1585 143.503 92.3306 142.331C93.5027 141.158 95.0924 140.5 96.75 140.5H134.25C135.908 140.5 137.497 141.158 138.669 142.331C139.842 143.503 140.5 145.092 140.5 146.75C140.5 148.408 139.842 149.997 138.669 151.169C137.497 152.342 135.908 153 134.25 153ZM184.25 171.75H171.75V109.25C171.751 108.429 171.59 107.616 171.276 106.857C170.962 106.098 170.502 105.409 169.922 104.828L138.672 73.5781C138.091 72.9979 137.402 72.5378 136.643 72.2241C135.884 71.9105 135.071 71.7494 134.25 71.75H96.75V59.25H156.664L184.25 86.8359V171.75Z" fill="#1A56DB"/><rect x="86.5" y="138" width="59.5" height="47" fill="#1B57DB"/><g filter="url(#filter0_f_39_621)"><ellipse cx="113.5" cy="108.142" rx="44" ry="9.8584" fill="white"/></g><path d="M150.489 125.95H76.5106" stroke="url(#paint0_linear_39_621)" stroke-width="5.91829" stroke-linecap="round"/><path d="M119.543 166H78.1651" stroke="url(#paint1_linear_39_621)" stroke-width="5.91829" stroke-linecap="round"/><path d="M109.061 143.706L76.5104 143.706" stroke="url(#paint2_linear_39_621)" stroke-width="5.91829" stroke-linecap="round"/></g><defs><filter id="filter0_f_39_621" x="-1.95226" y="26.8309" width="230.905" height="162.621" filterUnits="userSpaceOnUse" color-interpolation-filters="sRGB"><feFlood flood-opacity="0" result="BackgroundImageFix"/><feBlend mode="normal" in="SourceGraphic" in2="BackgroundImageFix" result="shape"/><feGaussianBlur stdDeviation="35.7261" result="effect1_foregroundBlur_39_621"/></filter><linearGradient id="paint0_linear_39_621" x1="150.489" y1="125.95" x2="95.1936" y2="168.859" gradientUnits="userSpaceOnUse"><stop stop-color="#EEEEEF"/><stop offset="1" stop-color="#A6A8AB"/></linearGradient><linearGradient id="paint1_linear_39_621" x1="119.543" y1="166" x2="77.8459" y2="147.902" gradientUnits="userSpaceOnUse"><stop stop-color="#EEEEEF"/><stop offset="1" stop-color="#A6A8AB"/></linearGradient><linearGradient id="paint2_linear_39_621" x1="109.061" y1="143.706" x2="74.15" y2="155.626" gradientUnits="userSpaceOnUse"><stop stop-color="#EEEEEF"/><stop offset="1" stop-color="#A6A8AB"/></linearGradient><clipPath id="clip0_39_621"><rect width="200" height="200" fill="white" transform="translate(28 28)"/></clipPath></defs></svg>
