<svg viewBox="0 0 256 256" fill="none" xmlns="http://www.w3.org/2000/svg"><path d="M38.1929 130.103L71.9433 130.103" stroke="url(#is_p0)" stroke-width="7.50011"/><path d="M38.1929 163.854L71.9433 163.854" stroke="url(#is_p1)" stroke-width="7.50011"/><path d="M19.4429 145.104L71.9436 145.103" stroke="url(#is_p2)" stroke-width="7.50011"/><path d="M176.142 136.891H131.625" stroke="url(#is_p3)" stroke-width="3.56134" stroke-linecap="round"/><path d="M157.52 160.991H132.62" stroke="url(#is_p4)" stroke-width="3.56134" stroke-linecap="round"/><path d="M151.212 147.576L131.625 147.576" stroke="url(#is_p5)" stroke-width="3.56134" stroke-linecap="round"/><path d="M157.166 194.096H115.432C114.325 194.096 113.263 193.656 112.48 192.873C111.698 192.091 111.258 191.029 111.258 189.922V123.147L140.472 93.9329H190.554C191.66 93.9329 192.722 94.3726 193.505 95.1552C194.287 95.9379 194.727 96.9994 194.727 98.1063V135.667" stroke="url(#is_p7)" stroke-width="4.52713" stroke-linecap="round" stroke-linejoin="round"/><path d="M140.473 93.933V123.147H111.259" stroke="#AECFFF" stroke-width="4.52713" stroke-linecap="round" stroke-linejoin="round"/><path d="M187.183 190.786C199.053 190.786 208.676 181.163 208.676 169.292C208.676 157.422 199.053 147.799 187.183 147.799C175.312 147.799 165.689 157.422 165.689 169.292C165.689 181.163 175.312 190.786 187.183 190.786Z" fill="#1A56DB"/><path d="M176.821 171.02L182.348 176.547L195.244 163.651" stroke="#fff" stroke-width="3.35832" stroke-linecap="round" stroke-linejoin="round"/><defs><radialGradient id="is_p7" cx="0" cy="0" r="1" gradientTransform="matrix(-75.8294 135.814 110.073 82.4788 197.132 69.3166)" gradientUnits="userSpaceOnUse"><stop stop-color="#BFC1C4"/><stop offset="0.31" stop-color="#6E7073"/><stop offset="0.62" stop-color="#6E7073"/><stop offset="1" stop-color="#BFC1C4"/></radialGradient><linearGradient id="is_p0" x1="32.019" y1="129.542" x2="61.0216" y2="161.247" gradientUnits="userSpaceOnUse"><stop stop-color="#BFC1C4" stop-opacity="0"/><stop offset="1" stop-color="#6E7073"/></linearGradient><linearGradient id="is_p1" x1="32.019" y1="163.293" x2="61.0216" y2="194.997" gradientUnits="userSpaceOnUse"><stop stop-color="#BFC1C4" stop-opacity="0"/><stop offset="1" stop-color="#6E7073"/></linearGradient><linearGradient id="is_p2" x1="9.83908" y1="144.543" x2="35.2856" y2="187.814" gradientUnits="userSpaceOnUse"><stop stop-color="#BFC1C4" stop-opacity="0"/><stop offset="1" stop-color="#6E7073"/></linearGradient><linearGradient id="is_p3" x1="176.142" y1="136.891" x2="132.374" y2="157.329" gradientUnits="userSpaceOnUse"><stop stop-color="#BFC1C4"/><stop offset="1" stop-color="#6E7073"/></linearGradient><linearGradient id="is_p4" x1="157.52" y1="160.991" x2="129.606" y2="153.701" gradientUnits="userSpaceOnUse"><stop stop-color="#BFC1C4"/><stop offset="1" stop-color="#6E7073"/></linearGradient><linearGradient id="is_p5" x1="151.212" y1="147.576" x2="128.705" y2="152.2" gradientUnits="userSpaceOnUse"><stop stop-color="#BFC1C4"/><stop offset="1" stop-color="#6E7073"/></linearGradient></defs></svg>
