<svg xmlns="http://www.w3.org/2000/svg" xmlns:xlink="http://www.w3.org/1999/xlink" id="Layer_1" x="0px" y="0px" viewBox="0 0 300 52" style="enable-background:new 0 0 300 52;" xml:space="preserve"><style type="text/css">	.st0{fill:#F9F6EF;}	.st1{fill:#F9F5EF;}</style><g>	<g>		<path class="st1" d="M44.3,13.5l-21.5-13c-0.2-0.1-0.5-0.1-0.7,0l-21.3,13c-0.2,0.1-0.3,0.3-0.3,0.5L0.5,38.3   c0,0.2,0.1,0.4,0.3,0.5l13.7,8.5c0.4,0.3,1,0,1-0.5v-4.3c0-0.2-0.1-0.4-0.3-0.5l-9-5.7C6,36.2,5.9,36,5.9,35.8L5.7,17.3   c0-0.2,0.1-0.4,0.3-0.6l16.1-10c0.2-0.1,0.5-0.1,0.7,0l16.2,10c0.2,0.1,0.3,0.3,0.3,0.6l-0.1,18.3c0,0.2-0.1,0.4-0.3,0.5l-9,5.6   c-0.2,0.1-0.3,0.3-0.3,0.5v4.3c0,0.5,0.6,0.8,1,0.5l13.7-8.4c0.2-0.1,0.3-0.3,0.3-0.5V14C44.6,13.8,44.5,13.6,44.3,13.5z"></path>		<path class="st1" d="M30.7,35.5l3.5-2.3c0.2-0.1,0.3-0.3,0.3-0.5l-0.1-12c0-0.2-0.1-0.4-0.3-0.5l-11.3-7c-0.2-0.1-0.5-0.1-0.7,0   l-11.4,7.1c-0.2,0.1-0.3,0.3-0.3,0.5v12.1c0,0.2,0.1,0.4,0.3,0.5l3.6,2.2c0.4,0.3,1,0,1-0.5l0.2-11.4c0-0.2,0.1-0.4,0.3-0.5l6.4-4   c0.2-0.1,0.5-0.1,0.7,0l6.4,4.1c0.2,0.1,0.3,0.3,0.3,0.5l0.1,11.2C29.7,35.4,30.2,35.7,30.7,35.5z"></path>		<path class="st1" d="M24.9,26.5l-2.1-1.2c-0.2-0.1-0.4-0.1-0.6,0l-2.1,1.1c-0.2,0.1-0.3,0.3-0.3,0.6V50c0,0.2,0.1,0.5,0.3,0.6   l2,1.1c0.2,0.1,0.4,0.1,0.6,0l2.1-1.1c0.2-0.1,0.3-0.3,0.3-0.6V27.1C25.2,26.9,25.1,26.7,24.9,26.5z"></path>	</g>	<g>		<path class="st1" d="M62,15.3h-2.5h-2.2H55h-2.7v1.5l2.7,0.3c0.1,2.8,0.1,5.5,0.1,8.3v1.2c0,3,0,5.8-0.1,8.5l-2.7,0.3v1.5H55h2.2   h2.2h1.9c6.7,0,11.4-3.9,11.4-10.8C72.8,19.2,68.6,15.3,62,15.3z M61.3,35.2h-1.9c-0.1-2.8-0.1-5.7-0.1-8.7v-1.2   c0-2.8,0-5.7,0.1-8.4h2c4.2,0,6.8,3.2,6.8,9.1C68.3,31.9,65.7,35.2,61.3,35.2z"></path>		<path class="st1" d="M94.6,35.2h-7.3c-0.1-2.8-0.1-5.6-0.1-8.5h4.2l0.4,2.8h1.7v-7.4h-1.7l-0.4,2.8h-4.2c0-2.7,0-5.3,0.1-7.9H94   l0.7,4h2.3l-0.2-5.7h-9.3h-2.2H83h-2.7v1.5l2.7,0.3c0.1,2.8,0.1,5.5,0.1,8.3v1.4c0,2.8,0,5.6-0.1,8.3l-2.7,0.3v1.5H83h2.2h2.2h10   l0.2-5.7h-2.3L94.6,35.2z"></path>		<path class="st1" d="M120.4,34.9c-1.1,0.5-2.3,0.8-3.4,0.8c-4,0-7.1-3.1-7.1-9.6c0-6.5,3.3-9.6,7.2-9.6c0.9,0,1.9,0.3,2.9,0.8   l0.8,4h2.2l-0.1-4.9c-2.1-1.2-4.2-1.6-6.3-1.6c-6.2,0-11.3,4.2-11.3,11.4c0,7.1,4.7,11.4,11.2,11.4c2.5,0,4.8-0.6,6.7-1.6l0.1-4.9   h-2.2L120.4,34.9z"></path>		<path class="st1" d="M141.6,14.7c-5.2,0-10.2,4-10.2,11.4c0,7.5,5,11.4,10.2,11.4s10.2-4,10.2-11.4   C151.7,18.6,146.7,14.7,141.6,14.7z M141.6,35.7c-3.9,0-5.6-4.5-5.6-9.6c0-5.1,1.6-9.6,5.6-9.6c3.9,0,5.5,4.5,5.5,9.6   C147.1,31.2,145.5,35.7,141.6,35.7z"></path>		<polygon class="st1" points="176.2,15.3 172.6,15.3 172.6,16.8 176.2,17.2 176.2,30 165.5,15.3 159.3,15.3 159.3,16.8 161.6,17    162,17.6 162,35 159.2,35.4 159.2,36.9 162,36.9 163.8,36.9 167.4,36.9 167.4,35.4 163.8,34.9 163.8,20.1 176.1,37 178.1,37    178.1,32.6 178.1,17.2 180.8,16.8 180.8,15.3 178.1,15.3   "></polygon>		<path class="st1" d="M195.7,15.3h-2.2h-2.2h-2.7v1.5l2.7,0.3c0.1,2.8,0.1,5.5,0.1,8.3v1.4c0,2.8,0,5.6-0.1,8.3l-2.7,0.3v1.5h2.7   h4.4h2.9v-1.5l-3-0.3c-0.1-2.7-0.1-5.5-0.1-8.4h4.4l0.4,3.1h1.7v-7.7h-1.7l-0.4,2.8h-4.4c0-2.7,0-5.3,0.1-7.9h6.7l0.7,4h2.3   l-0.2-5.7H195.7z"></path>		<path class="st1" d="M226.6,35.2H220c-0.1-2.7-0.1-5.5-0.1-7.8v-2c0-2.8,0-5.5,0.1-8.3l2.9-0.3v-1.5h-2.8h-4.4h-2.7v1.5l2.7,0.3   c0.1,2.7,0.1,5.5,0.1,8.3v1.8c0,2.5,0,5.2-0.1,7.9l-2.7,0.3v1.5h2.7h2.2h2.2h9.4l0.3-6.3h-2.3L226.6,35.2z"></path>		<path class="st1" d="M240.1,15.3h-2.7v1.5l2.7,0.3c0.1,2.8,0.1,5.5,0.1,8.3v1.4c0,2.8,0,5.6-0.1,8.3l-2.7,0.3v1.5h2.7h4.4h2.7   v-1.5l-2.7-0.3c-0.1-2.8-0.1-5.5-0.1-8.3v-1.4c0-2.8,0-5.6,0.1-8.3l2.7-0.3v-1.5h-2.7H240.1z"></path>		<path class="st1" d="M270,34.9c-1.1,0.5-2.3,0.8-3.4,0.8c-4,0-7-3.1-7-9.6c0-6.5,3.3-9.6,7.2-9.6c0.9,0,1.9,0.3,2.9,0.8l0.8,4h2.2   l-0.1-4.9c-2.1-1.2-4.2-1.6-6.3-1.6c-6.2,0-11.3,4.2-11.3,11.4c0,7.1,4.7,11.4,11.2,11.4c2.5,0,4.8-0.6,6.7-1.6L273,31h-2.2   L270,34.9z"></path>		<path class="st1" d="M292,17h4.3l0.7,4.2h2.3l-0.2-5.9h-7h-4.4h-7l-0.2,5.9h2.3l0.7-4.2h4.3c0.1,2.8,0.1,5.6,0.1,8.4v1.4   c0,2.8,0,5.5-0.1,8.3l-3.1,0.3v1.5h3h4.4h3v-1.5l-3.1-0.3c-0.1-2.8-0.1-5.5-0.1-8.3v-1.4C292,22.5,292,19.7,292,17z"></path>	</g></g></svg>