<svg width="300" height="52" viewBox="0 0 300 52" fill="none" xmlns="http://www.w3.org/2000/svg">
<g clip-path="url(#clip0_19_161)">
<path d="M44.3 13.4998L22.8 0.499805C22.6 0.399805 22.3 0.399805 22.1 0.499805L0.8 13.4998C0.6 13.5998 0.5 13.7998 0.5 13.9998V38.2998C0.5 38.4998 0.6 38.6998 0.8 38.7998L14.5 47.2998C14.9 47.5998 15.5 47.2998 15.5 46.7998V42.4998C15.5 42.2998 15.4 42.0998 15.2 41.9998L6.2 36.2998C6 36.1998 5.9 35.9998 5.9 35.7998L5.7 17.2998C5.7 17.0998 5.8 16.8998 6 16.6998L22.1 6.6998C22.3 6.5998 22.6 6.5998 22.8 6.6998L39 16.6998C39.2 16.7998 39.3 16.9998 39.3 17.2998L39.2 35.5998C39.2 35.7998 39.1 35.9998 38.9 36.0998L29.9 41.6998C29.7 41.7998 29.6 41.9998 29.6 42.1998V46.4998C29.6 46.9998 30.2 47.2998 30.6 46.9998L44.3 38.5998C44.5 38.4998 44.6 38.2998 44.6 38.0998V13.9998C44.6 13.7998 44.5 13.5998 44.3 13.4998Z" fill="#0C1837"/>
<path d="M30.6999 35.5L34.1999 33.2C34.3999 33.1 34.4999 32.9 34.4999 32.7L34.3999 20.7C34.3999 20.5 34.2999 20.3 34.0999 20.2L22.7999 13.2C22.5999 13.1 22.2999 13.1 22.0999 13.2L10.6999 20.3C10.4999 20.4 10.3999 20.6 10.3999 20.8V32.9C10.3999 33.1 10.4999 33.3 10.6999 33.4L14.2999 35.6C14.6999 35.9 15.2999 35.6 15.2999 35.1L15.4999 23.7C15.4999 23.5 15.5999 23.3 15.7999 23.2L22.1999 19.2C22.3999 19.1 22.6999 19.1 22.8999 19.2L29.2999 23.3C29.4999 23.4 29.5999 23.6 29.5999 23.8L29.6999 35C29.6999 35.4 30.1999 35.7 30.6999 35.5Z" fill="#134FDF"/>
<path d="M24.9 26.4996L22.8 25.2996C22.6 25.1996 22.4001 25.1996 22.2001 25.2996L20.1 26.3996C19.9 26.4996 19.8 26.6996 19.8 26.9996V49.9996C19.8 50.1996 19.9 50.4996 20.1 50.5996L22.1 51.6996C22.3 51.7996 22.5001 51.7996 22.7001 51.6996L24.8 50.5996C25 50.4996 25.1 50.2996 25.1 49.9996V27.0996C25.2 26.8996 25.1 26.6996 24.9 26.4996Z" fill="#134FDF"/>
<path d="M62 15.2998H59.5H57.3H55H52.3V16.7998L55 17.0998C55.1 19.8998 55.1 22.5998 55.1 25.3998V26.5998C55.1 29.5998 55.1 32.3998 55 35.0998L52.3 35.3998V36.8998H55H57.2001H59.4001H61.3C68 36.8998 72.7 32.9998 72.7 26.0998C72.8 19.1998 68.6 15.2998 62 15.2998ZM61.3 35.1998H59.4001C59.3001 32.3998 59.3 29.4998 59.3 26.4998V25.2998C59.3 22.4998 59.3001 19.5998 59.4001 16.8998H61.4001C65.6001 16.8998 68.2 20.0998 68.2 25.9998C68.3 31.8998 65.7 35.1998 61.3 35.1998Z" fill="#0C1837"/>
<path d="M94.6 35.1998H87.3C87.2 32.3998 87.2 29.5998 87.2 26.6998H91.4L91.8 29.4998H93.5V22.0998H91.8L91.4 24.8998H87.2C87.2 22.1998 87.2 19.5998 87.3 16.9998H94L94.7 20.9998H97L96.8 15.2998H87.5H85.3H83H80.3V16.7998L83 17.0998C83.1 19.8998 83.1 22.5998 83.1 25.3998V26.7998C83.1 29.5998 83.1 32.3998 83 35.0998L80.3 35.3998V36.8998H83H85.2H87.4H97.4L97.6 31.1998H95.3L94.6 35.1998Z" fill="#0C1837"/>
<path d="M120.4 34.8998C119.3 35.3998 118.1 35.6998 117 35.6998C113 35.6998 109.9 32.5998 109.9 26.0998C109.9 19.5998 113.2 16.4998 117.1 16.4998C118 16.4998 119 16.7998 120 17.2998L120.8 21.2998H123L122.9 16.3998C120.8 15.1998 118.7 14.7998 116.6 14.7998C110.4 14.7998 105.3 18.9998 105.3 26.1998C105.3 33.2998 110 37.5998 116.5 37.5998C119 37.5998 121.3 36.9998 123.2 35.9998L123.3 31.0998H121.1L120.4 34.8998Z" fill="#0C1837"/>
<path d="M141.6 14.6997C136.4 14.6997 131.4 18.6997 131.4 26.0997C131.4 33.5997 136.4 37.4997 141.6 37.4997C146.8 37.4997 151.8 33.4997 151.8 26.0997C151.7 18.5997 146.7 14.6997 141.6 14.6997ZM141.6 35.6997C137.7 35.6997 136 31.1997 136 26.0997C136 20.9997 137.6 16.4997 141.6 16.4997C145.5 16.4997 147.1 20.9997 147.1 26.0997C147.1 31.1997 145.5 35.6997 141.6 35.6997Z" fill="#0C1837"/>
<path d="M176.2 15.2998H172.6V16.7998L176.2 17.1998V29.9998L165.5 15.2998H159.3V16.7998L161.6 16.9998L162 17.5998V34.9998L159.2 35.3998V36.8998H162H163.8H167.4V35.3998L163.8 34.8998V20.0998L176.1 36.9998H178.1V32.5998V17.1998L180.8 16.7998V15.2998H178.1H176.2Z" fill="#0C1837"/>
<path d="M195.7 15.2998H193.5H191.3H188.6V16.7998L191.3 17.0998C191.4 19.8998 191.4 22.5998 191.4 25.3998V26.7998C191.4 29.5998 191.4 32.3998 191.3 35.0998L188.6 35.3998V36.8998H191.3H195.7H198.6V35.3998L195.6 35.0998C195.5 32.3998 195.5 29.5998 195.5 26.6998H199.9L200.3 29.7998H202V22.0998H200.3L199.9 24.8998H195.5C195.5 22.1998 195.5 19.5998 195.6 16.9998H202.3L203 20.9998H205.3L205.1 15.2998H195.7Z" fill="#0C1837"/>
<path d="M226.6 35.1998H220C219.9 32.4998 219.9 29.6998 219.9 27.3998V25.3998C219.9 22.5998 219.9 19.8998 220 17.0998L222.9 16.7998V15.2998H220.1H215.7H213V16.7998L215.7 17.0998C215.8 19.7998 215.8 22.5998 215.8 25.3998V27.1998C215.8 29.6998 215.8 32.3998 215.7 35.0998L213 35.3998V36.8998H215.7H217.9H220.1H229.5L229.8 30.5998H227.5L226.6 35.1998Z" fill="#0C1837"/>
<path d="M240.1 15.2998H237.4V16.7998L240.1 17.0998C240.2 19.8998 240.2 22.5998 240.2 25.3998V26.7998C240.2 29.5998 240.2 32.3998 240.1 35.0998L237.4 35.3998V36.8998H240.1H244.5H247.2V35.3998L244.5 35.0998C244.4 32.2998 244.4 29.5998 244.4 26.7998V25.3998C244.4 22.5998 244.4 19.7998 244.5 17.0998L247.2 16.7998V15.2998H244.5H240.1Z" fill="#0C1837"/>
<path d="M270 34.8998C268.9 35.3998 267.7 35.6998 266.6 35.6998C262.6 35.6998 259.6 32.5998 259.6 26.0998C259.6 19.5998 262.9 16.4998 266.8 16.4998C267.7 16.4998 268.7 16.7998 269.7 17.2998L270.5 21.2998H272.7L272.6 16.3998C270.5 15.1998 268.4 14.7998 266.3 14.7998C260.1 14.7998 255 18.9998 255 26.1998C255 33.2998 259.7 37.5998 266.2 37.5998C268.7 37.5998 271 36.9998 272.9 35.9998L273 30.9998H270.8L270 34.8998Z" fill="#0C1837"/>
<path d="M292 16.9998H296.3L297 21.1998H299.3L299.1 15.2998H292.1H287.7H280.7L280.5 21.1998H282.8L283.5 16.9998H287.8C287.9 19.7998 287.9 22.5998 287.9 25.3998V26.7998C287.9 29.5998 287.9 32.2998 287.8 35.0998L284.7 35.3998V36.8998H287.7H292.1H295.1V35.3998L292 35.0998C291.9 32.2998 291.9 29.5998 291.9 26.7998V25.3998C292 22.4998 292 19.6998 292 16.9998Z" fill="#0C1837"/>
</g>
<defs>
<clipPath id="clip0_19_161">
<rect width="300" height="52" fill="white"/>
</clipPath>
</defs>
</svg>
