<svg width="2565" height="654" viewBox="0 0 2565 654" fill="none" xmlns="http://www.w3.org/2000/svg">
<g filter="url(#filter0_f_26_850)">
<path d="M1251.1 88.8347C1260.38 83.4796 1271.8 83.4796 1281.08 88.8347L1413.36 165.209C1422.64 170.564 1428.35 180.461 1428.35 191.171V343.921C1428.35 354.631 1422.64 364.528 1413.36 369.883L1281.08 446.258C1271.8 451.613 1260.38 451.613 1251.1 446.258L1118.82 369.883C1109.54 364.528 1103.83 354.631 1103.83 343.921V191.171C1103.83 180.461 1109.54 170.565 1118.82 165.209L1251.1 88.8347Z" fill="#134FDF" fill-opacity="0.2"/>
</g>
<path d="M1251.1 88.8347C1260.38 83.4796 1271.8 83.4796 1281.08 88.8347L1413.36 165.209C1422.64 170.564 1428.35 180.461 1428.35 191.171V343.921C1428.35 354.631 1422.64 364.528 1413.36 369.883L1281.08 446.258C1271.8 451.613 1260.38 451.613 1251.1 446.258L1118.82 369.883C1109.54 364.528 1103.83 354.631 1103.83 343.921V191.171C1103.83 180.461 1109.54 170.564 1118.82 165.209L1251.1 88.8347Z" fill="white"/>
<path d="M1251.53 89.5791C1260.54 84.3775 1271.64 84.3775 1280.65 89.5791L1412.93 165.954C1421.94 171.156 1427.49 180.769 1427.49 191.172V343.921C1427.49 354.324 1421.94 363.937 1412.93 369.139L1280.65 445.514C1271.64 450.715 1260.54 450.715 1251.53 445.514L1119.25 369.139C1110.24 363.937 1104.69 354.324 1104.69 343.921V191.172C1104.69 180.769 1110.24 171.156 1119.25 165.954L1251.53 89.5791Z" stroke="url(#paint0_linear_26_850)" stroke-opacity="0.47" stroke-width="1.71895"/>
<path d="M1248.61 50.8643C1259.43 44.6202 1272.75 44.6202 1283.57 50.8643L1442.36 142.546C1453.18 148.79 1459.84 160.329 1459.84 172.817V356.181C1459.84 368.669 1453.18 380.208 1442.36 386.452L1283.57 478.134C1272.75 484.378 1259.43 484.378 1248.61 478.134L1089.82 386.452C1079 380.208 1072.34 368.669 1072.34 356.181V172.817C1072.34 160.329 1079 148.79 1089.82 142.546L1248.61 50.8643Z" stroke="#CBD8FF" stroke-opacity="0.5" stroke-width="2.06346"/>
<path d="M1245.89 21.7881C1258.39 14.57 1273.79 14.57 1286.29 21.7881L1469.86 127.771C1482.36 134.989 1490.06 148.328 1490.06 162.764V374.729C1490.06 389.164 1482.36 402.504 1469.86 409.722L1286.29 515.704C1273.79 522.922 1258.39 522.922 1245.89 515.704L1062.32 409.722C1049.82 402.504 1042.12 389.164 1042.12 374.729V162.764C1042.12 148.328 1049.82 134.989 1062.32 127.771L1245.89 21.7881Z" stroke="#CBD8FF" stroke-opacity="0.43" stroke-width="2.38532"/>
<path d="M1262.39 232.045C1264.68 230.723 1267.5 230.723 1269.79 232.045L1302.45 250.9C1304.74 252.222 1306.15 254.665 1306.15 257.309V295.02C1306.15 297.664 1304.74 300.107 1302.45 301.429L1269.79 320.285C1267.5 321.607 1264.68 321.607 1262.39 320.285L1229.73 301.429C1227.44 300.107 1226.03 297.664 1226.03 295.02V257.309C1226.03 254.665 1227.44 252.222 1229.73 250.9L1262.39 232.045Z" fill="#134FDF"/>
<g filter="url(#filter1_f_26_850)">
<circle cx="1262.5" cy="276.056" r="18.5" fill="white"/>
</g>
<path d="M1261.44 210.622C1264.32 208.961 1267.86 208.961 1270.74 210.622L1319.72 238.905C1322.6 240.566 1324.37 243.635 1324.37 246.957V303.523C1324.37 306.845 1322.6 309.914 1319.72 311.575L1270.74 339.858C1267.86 341.519 1264.32 341.519 1261.44 339.858L1212.45 311.575C1209.58 309.914 1207.8 306.844 1207.8 303.523V246.957C1207.8 243.635 1209.58 240.566 1212.45 238.905L1261.44 210.622Z" stroke="#134FDF" stroke-width="3.60754"/>
<path d="M1501.25 278.746L1662.25 136.746L1854.25 112.746" stroke="#D9D9D9" stroke-width="2"/>
<path d="M1027.88 277.246C899.163 133.827 536.313 43.3082 328.503 67.8316" stroke="#D9D9D9" stroke-width="2"/>
<path d="M1025.26 279.443C847.069 206.049 589.255 187.443 397.255 254.442" stroke="#D9D9D9" stroke-width="2"/>
<path d="M1021.74 278.163C914.54 199.995 745.909 135.958 562.255 146.442" stroke="#D9D9D9" stroke-width="2"/>
<path d="M1028.51 278.121C853.367 473.264 363.386 598.539 80.6307 565.172" stroke="#D9D9D9" stroke-width="2.7213"/>
<path d="M1028.66 277.244C786.216 377.107 455.832 397.868 178.26 343.442" stroke="#D9D9D9" stroke-width="2.7213"/>
<path d="M1028.01 277.246C892.732 396.777 607.685 471.856 357.558 481.018" stroke="#D9D9D9" stroke-width="2.7213"/>
<circle cx="323.505" cy="69.4424" r="9.25" fill="#D9D9D9"/>
<circle cx="246.505" cy="130.329" r="9.25" fill="#D9D9D9"/>
<circle cx="228.005" cy="436.108" r="9.25" fill="#D9D9D9"/>
<circle cx="108.381" cy="417.608" r="9.25" fill="#D9D9D9"/>
<circle cx="132.005" cy="519.192" r="9.25" fill="#D9D9D9"/>
<circle cx="467.005" cy="426.858" r="9.25" fill="#D9D9D9"/>
<circle cx="1705.25" cy="198.806" r="9.25" fill="#D9D9D9"/>
<circle cx="1977.25" cy="240.806" r="9.25" fill="#D9D9D9"/>
<circle cx="2061.25" cy="365.806" r="9.25" fill="#D9D9D9"/>
<circle cx="2111.25" cy="179.806" r="9.25" fill="#D9D9D9"/>
<circle cx="2280.25" cy="179.806" r="9.25" fill="#D9D9D9"/>
<circle cx="2398.25" cy="313.806" r="9.25" fill="#D9D9D9"/>
<circle cx="2235.25" cy="322.806" r="9.25" fill="#D9D9D9"/>
<circle cx="1775.25" cy="332.806" r="9.25" fill="#D9D9D9"/>
<circle cx="448.505" cy="187.442" r="9.25" fill="#D9D9D9"/>
<circle cx="237.255" cy="239.492" r="9.25" fill="#D9D9D9"/>
<circle cx="9.25" cy="226.908" r="9.25" fill="#D9D9D9"/>
<circle cx="27.75" cy="320.071" r="9.25" fill="#D9D9D9"/>
<circle cx="132.005" cy="178.192" r="9.25" fill="#D9D9D9"/>
<circle cx="565.901" cy="147.366" r="9.25" fill="#D9D9D9"/>
<circle cx="395.578" cy="257.992" r="9.25" fill="#D9D9D9"/>
<circle cx="187.358" cy="344.321" r="9.25" fill="#D9D9D9"/>
<circle cx="353.25" cy="479.862" r="9.25" fill="#D9D9D9"/>
<circle cx="89.8809" cy="569.862" r="9.25" fill="#D9D9D9"/>
<g filter="url(#filter2_d_26_850)">
<circle cx="1491.01" cy="278.746" r="16" fill="#134FDF"/>
</g>
<g filter="url(#filter3_f_26_850)">
<circle cx="1495" cy="277.556" r="6" fill="white"/>
</g>
<g filter="url(#filter4_d_26_850)">
<circle cx="1665.5" cy="137.056" r="6.5" fill="#134FDF"/>
</g>
<g filter="url(#filter5_f_26_850)">
<circle cx="1667.12" cy="136.572" r="2.4375" fill="white"/>
</g>
<g filter="url(#filter6_d_26_850)">
<circle cx="1041.17" cy="278.746" r="16" fill="#134FDF"/>
</g>
<g filter="url(#filter7_f_26_850)">
<circle cx="1038.5" cy="278.056" r="6.5" fill="white"/>
</g>
<path d="M2187.01 259.996H2489.01" stroke="#1A56DB" stroke-width="3"/>
<path d="M2001.01 313.996L2140.01 265.996" stroke="#1A56DB" stroke-width="3"/>
<path d="M1512.01 277.996L1918.01 327.996" stroke="#1A56DB" stroke-width="3"/>
<path d="M2157.51 262.996L1875.01 96.9956L1776.01 229.996L1510 277.556L1870.01 473.996L1957.01 325.996L2060.01 431.996L2157.51 262.996ZM2157.51 262.996L2270.01 96.9956L2520.01 266.996L2395.01 446.996L2157.51 262.996Z" stroke="#D9D9D9" stroke-width="2"/>
<circle cx="1873.01" cy="98.9956" r="44" fill="white" stroke="#D9D9D9" stroke-width="2"/>
<g clip-path="url(#clip0_26_850)">
<path d="M1851.67 91.9522H1895.21L1873.44 78.5557L1851.67 91.9522Z" stroke="#1A56DB" stroke-width="1.82018" stroke-linecap="round" stroke-linejoin="round"/>
<path d="M1858.37 91.9521V108.698" stroke="#1A56DB" stroke-width="1.82018" stroke-linecap="round" stroke-linejoin="round"/>
<path d="M1868.42 91.9521V108.698" stroke="#1A56DB" stroke-width="1.82018" stroke-linecap="round" stroke-linejoin="round"/>
<path d="M1878.46 91.9521V108.698" stroke="#1A56DB" stroke-width="1.82018" stroke-linecap="round" stroke-linejoin="round"/>
<path d="M1888.51 91.9521V108.698" stroke="#1A56DB" stroke-width="1.82018" stroke-linecap="round" stroke-linejoin="round"/>
<path d="M1853.35 108.698H1893.54" stroke="#1A56DB" stroke-width="1.82018" stroke-linecap="round" stroke-linejoin="round"/>
<path d="M1850 115.396H1896.88" stroke="#1A56DB" stroke-width="1.82018" stroke-linecap="round" stroke-linejoin="round"/>
</g>
<circle cx="2271.01" cy="98.9956" r="44" fill="white" stroke="#D9D9D9" stroke-width="2"/>
<g clip-path="url(#clip1_26_850)">
<path d="M2271.44 106.356C2279.57 106.356 2286.16 99.7652 2286.16 91.6355C2286.16 83.5059 2279.57 76.9155 2271.44 76.9155C2263.31 76.9155 2256.72 83.5059 2256.72 91.6355C2256.72 99.7652 2263.31 106.356 2271.44 106.356Z" stroke="#1A56DB" stroke-width="2" stroke-linecap="round" stroke-linejoin="round"/>
<path d="M2249.36 119.235C2253.82 111.537 2261.91 106.355 2271.44 106.355C2280.97 106.355 2289.07 111.537 2293.52 119.235" stroke="#1A56DB" stroke-width="2" stroke-linecap="round" stroke-linejoin="round"/>
</g>
<circle cx="2520.01" cy="257.996" r="44" fill="white" stroke="#D9D9D9" stroke-width="2"/>
<circle cx="2398.01" cy="445.996" r="44" fill="white" stroke="#D9D9D9" stroke-width="2"/>
<g clip-path="url(#clip2_26_850)">
<path d="M2415 466.076H2381.88C2381.39 466.076 2380.92 465.882 2380.58 465.537C2380.23 465.192 2380.04 464.724 2380.04 464.236V423.756C2380.04 423.268 2380.23 422.8 2380.58 422.454C2380.92 422.109 2381.39 421.916 2381.88 421.916H2403.96L2416.84 434.796V464.236C2416.84 464.724 2416.65 465.192 2416.3 465.537C2415.96 465.882 2415.49 466.076 2415 466.076Z" stroke="#1A56DB" stroke-width="2" stroke-linecap="round" stroke-linejoin="round"/>
<path d="M2403.96 421.916V434.796H2416.84" stroke="#1A56DB" stroke-width="2" stroke-linecap="round" stroke-linejoin="round"/>
<path d="M2391.08 445.835H2405.8" stroke="#1A56DB" stroke-width="2" stroke-linecap="round" stroke-linejoin="round"/>
<path d="M2391.08 453.195H2405.8" stroke="#1A56DB" stroke-width="2" stroke-linecap="round" stroke-linejoin="round"/>
</g>
<circle cx="1956.01" cy="330.496" r="44" fill="white" stroke="#D9D9D9" stroke-width="2"/>
<circle cx="1873.01" cy="458.496" r="44" fill="white" stroke="#D9D9D9" stroke-width="2"/>
<g filter="url(#filter8_d_26_850)">
<circle cx="1775.5" cy="228.056" r="6.5" fill="#134FDF"/>
</g>
<g filter="url(#filter9_f_26_850)">
<circle cx="1777.12" cy="227.572" r="2.4375" fill="white"/>
</g>
<g filter="url(#filter10_d_26_850)">
<circle cx="2059.5" cy="431.056" r="6.5" fill="#134FDF"/>
</g>
<g filter="url(#filter11_f_26_850)">
<circle cx="2061.12" cy="430.572" r="2.4375" fill="white"/>
</g>
<path d="M1971.08 329.755C1973.3 329.754 1975.48 330.268 1977.46 331.258C1979.44 332.247 1981.16 333.684 1982.48 335.455" stroke="#1A56DB" stroke-width="2" stroke-linecap="round" stroke-linejoin="round"/>
<path d="M1929.28 335.455C1930.61 333.684 1932.33 332.247 1934.31 331.258C1936.29 330.268 1938.47 329.754 1940.68 329.755" stroke="#1A56DB" stroke-width="2" stroke-linecap="round" stroke-linejoin="round"/>
<path d="M1955.88 344.956C1961.13 344.956 1965.38 340.702 1965.38 335.456C1965.38 330.209 1961.13 325.956 1955.88 325.956C1950.64 325.956 1946.38 330.209 1946.38 335.456C1946.38 340.702 1950.64 344.956 1955.88 344.956Z" stroke="#1A56DB" stroke-width="2" stroke-linecap="round" stroke-linejoin="round"/>
<path d="M1942.58 352.556C1943.95 350.241 1945.89 348.322 1948.22 346.99C1950.56 345.657 1953.2 344.956 1955.88 344.956C1958.57 344.956 1961.21 345.657 1963.54 346.99C1965.88 348.322 1967.82 350.241 1969.18 352.556" stroke="#1A56DB" stroke-width="2" stroke-linecap="round" stroke-linejoin="round"/>
<path d="M1963.72 320.256C1964.08 318.879 1964.81 317.631 1965.84 316.651C1966.87 315.671 1968.15 314.999 1969.55 314.712C1970.94 314.425 1972.38 314.534 1973.72 315.027C1975.05 315.52 1976.22 316.377 1977.09 317.5C1977.96 318.624 1978.5 319.969 1978.64 321.382C1978.79 322.796 1978.53 324.223 1977.91 325.499C1977.28 326.775 1976.31 327.851 1975.1 328.603C1973.9 329.356 1972.51 329.755 1971.08 329.756" stroke="#1A56DB" stroke-width="2" stroke-linecap="round" stroke-linejoin="round"/>
<path d="M1940.68 329.756C1939.26 329.755 1937.87 329.356 1936.66 328.603C1935.46 327.851 1934.49 326.775 1933.86 325.499C1933.24 324.223 1932.98 322.796 1933.13 321.382C1933.27 319.969 1933.81 318.624 1934.68 317.5C1935.55 316.377 1936.72 315.52 1938.05 315.027C1939.39 314.534 1940.83 314.425 1942.22 314.712C1943.61 314.999 1944.9 315.671 1945.93 316.651C1946.96 317.631 1947.69 318.879 1948.05 320.256" stroke="#1A56DB" stroke-width="2" stroke-linecap="round" stroke-linejoin="round"/>
<ellipse cx="2164.5" cy="265.056" rx="43.5" ry="43.5" fill="#D9D9D9"/>
<ellipse cx="2164.5" cy="265.056" rx="43.5" ry="43.5" fill="#1A56DB"/>
<g filter="url(#filter12_f_26_850)">
<ellipse cx="2159.66" cy="269.891" rx="19.3333" ry="19.3333" fill="white"/>
</g>
<path d="M2145 265.828L2156.45 277.282L2183.18 250.556" stroke="white" stroke-width="7" stroke-linecap="round" stroke-linejoin="round"/>
<path d="M2145 265.828L2156.45 277.282L2183.18 250.556" stroke="white" stroke-width="7" stroke-linecap="round" stroke-linejoin="round"/>
<path d="M2542 242.556H2497.84C2496.82 242.556 2496 243.379 2496 244.396V273.836C2496 274.852 2496.82 275.676 2497.84 275.676H2542C2543.02 275.676 2543.84 274.852 2543.84 273.836V244.396C2543.84 243.379 2543.02 242.556 2542 242.556Z" stroke="#1A56DB" stroke-width="2" stroke-linecap="round" stroke-linejoin="round"/>
<path d="M2529.12 268.316H2536.48" stroke="#1A56DB" stroke-width="2" stroke-linecap="round" stroke-linejoin="round"/>
<path d="M2518.08 268.316H2521.76" stroke="#1A56DB" stroke-width="2" stroke-linecap="round" stroke-linejoin="round"/>
<path d="M2496 251.756H2543.84" stroke="#1A56DB" stroke-width="2" stroke-linecap="round" stroke-linejoin="round"/>
<path d="M1872.85 461.632C1876.33 461.632 1879.15 458.808 1879.15 455.325C1879.15 451.841 1876.33 449.017 1872.85 449.017C1869.36 449.017 1866.54 451.841 1866.54 455.325C1866.54 458.808 1869.36 461.632 1872.85 461.632Z" stroke="#1A56DB" stroke-width="2" stroke-linecap="round" stroke-linejoin="round"/>
<path d="M1888.62 455.325C1888.62 469.517 1872.85 480.556 1872.85 480.556C1872.85 480.556 1857.08 469.517 1857.08 455.325C1857.08 451.143 1858.74 447.132 1861.7 444.174C1864.65 441.217 1868.66 439.556 1872.85 439.556C1877.03 439.556 1881.04 441.217 1884 444.174C1886.95 447.132 1888.62 451.143 1888.62 455.325Z" stroke="#1A56DB" stroke-width="2" stroke-linecap="round" stroke-linejoin="round"/>
<defs>
<filter id="filter0_f_26_850" x="1019.01" y="0.000228882" width="494.163" height="535.092" filterUnits="userSpaceOnUse" color-interpolation-filters="sRGB">
<feFlood flood-opacity="0" result="BackgroundImageFix"/>
<feBlend mode="normal" in="SourceGraphic" in2="BackgroundImageFix" result="shape"/>
<feGaussianBlur stdDeviation="42.4091" result="effect1_foregroundBlur_26_850"/>
</filter>
<filter id="filter1_f_26_850" x="1180.2" y="193.756" width="164.6" height="164.6" filterUnits="userSpaceOnUse" color-interpolation-filters="sRGB">
<feFlood flood-opacity="0" result="BackgroundImageFix"/>
<feBlend mode="normal" in="SourceGraphic" in2="BackgroundImageFix" result="shape"/>
<feGaussianBlur stdDeviation="31.9" result="effect1_foregroundBlur_26_850"/>
</filter>
<filter id="filter2_d_26_850" x="1455.51" y="242.246" width="73" height="73" filterUnits="userSpaceOnUse" color-interpolation-filters="sRGB">
<feFlood flood-opacity="0" result="BackgroundImageFix"/>
<feColorMatrix in="SourceAlpha" type="matrix" values="0 0 0 0 0 0 0 0 0 0 0 0 0 0 0 0 0 0 127 0" result="hardAlpha"/>
<feMorphology radius="9" operator="dilate" in="SourceAlpha" result="effect1_dropShadow_26_850"/>
<feOffset dx="1"/>
<feGaussianBlur stdDeviation="5.75"/>
<feComposite in2="hardAlpha" operator="out"/>
<feColorMatrix type="matrix" values="0 0 0 0 0.672326 0 0 0 0 0.774193 0 0 0 0 1 0 0 0 1 0"/>
<feBlend mode="normal" in2="BackgroundImageFix" result="effect1_dropShadow_26_850"/>
<feBlend mode="normal" in="SourceGraphic" in2="effect1_dropShadow_26_850" result="shape"/>
</filter>
<filter id="filter3_f_26_850" x="1468.1" y="250.656" width="53.8" height="53.8" filterUnits="userSpaceOnUse" color-interpolation-filters="sRGB">
<feFlood flood-opacity="0" result="BackgroundImageFix"/>
<feBlend mode="normal" in="SourceGraphic" in2="BackgroundImageFix" result="shape"/>
<feGaussianBlur stdDeviation="10.45" result="effect1_foregroundBlur_26_850"/>
</filter>
<filter id="filter4_d_26_850" x="1651.08" y="122.228" width="29.6562" height="29.6562" filterUnits="userSpaceOnUse" color-interpolation-filters="sRGB">
<feFlood flood-opacity="0" result="BackgroundImageFix"/>
<feColorMatrix in="SourceAlpha" type="matrix" values="0 0 0 0 0 0 0 0 0 0 0 0 0 0 0 0 0 0 127 0" result="hardAlpha"/>
<feMorphology radius="3.65625" operator="dilate" in="SourceAlpha" result="effect1_dropShadow_26_850"/>
<feOffset dx="0.40625"/>
<feGaussianBlur stdDeviation="2.33594"/>
<feComposite in2="hardAlpha" operator="out"/>
<feColorMatrix type="matrix" values="0 0 0 0 0.672326 0 0 0 0 0.774193 0 0 0 0 1 0 0 0 1 0"/>
<feBlend mode="normal" in2="BackgroundImageFix" result="effect1_dropShadow_26_850"/>
<feBlend mode="normal" in="SourceGraphic" in2="effect1_dropShadow_26_850" result="shape"/>
</filter>
<filter id="filter5_f_26_850" x="1656.19" y="125.644" width="21.8562" height="21.8562" filterUnits="userSpaceOnUse" color-interpolation-filters="sRGB">
<feFlood flood-opacity="0" result="BackgroundImageFix"/>
<feBlend mode="normal" in="SourceGraphic" in2="BackgroundImageFix" result="shape"/>
<feGaussianBlur stdDeviation="4.24531" result="effect1_foregroundBlur_26_850"/>
</filter>
<filter id="filter6_d_26_850" x="1005.67" y="242.246" width="73" height="73" filterUnits="userSpaceOnUse" color-interpolation-filters="sRGB">
<feFlood flood-opacity="0" result="BackgroundImageFix"/>
<feColorMatrix in="SourceAlpha" type="matrix" values="0 0 0 0 0 0 0 0 0 0 0 0 0 0 0 0 0 0 127 0" result="hardAlpha"/>
<feMorphology radius="9" operator="dilate" in="SourceAlpha" result="effect1_dropShadow_26_850"/>
<feOffset dx="1"/>
<feGaussianBlur stdDeviation="5.75"/>
<feComposite in2="hardAlpha" operator="out"/>
<feColorMatrix type="matrix" values="0 0 0 0 0.672326 0 0 0 0 0.774193 0 0 0 0 1 0 0 0 1 0"/>
<feBlend mode="normal" in2="BackgroundImageFix" result="effect1_dropShadow_26_850"/>
<feBlend mode="normal" in="SourceGraphic" in2="effect1_dropShadow_26_850" result="shape"/>
</filter>
<filter id="filter7_f_26_850" x="1010.1" y="249.656" width="56.8" height="56.8" filterUnits="userSpaceOnUse" color-interpolation-filters="sRGB">
<feFlood flood-opacity="0" result="BackgroundImageFix"/>
<feBlend mode="normal" in="SourceGraphic" in2="BackgroundImageFix" result="shape"/>
<feGaussianBlur stdDeviation="10.95" result="effect1_foregroundBlur_26_850"/>
</filter>
<filter id="filter8_d_26_850" x="1761.08" y="213.228" width="29.6562" height="29.6562" filterUnits="userSpaceOnUse" color-interpolation-filters="sRGB">
<feFlood flood-opacity="0" result="BackgroundImageFix"/>
<feColorMatrix in="SourceAlpha" type="matrix" values="0 0 0 0 0 0 0 0 0 0 0 0 0 0 0 0 0 0 127 0" result="hardAlpha"/>
<feMorphology radius="3.65625" operator="dilate" in="SourceAlpha" result="effect1_dropShadow_26_850"/>
<feOffset dx="0.40625"/>
<feGaussianBlur stdDeviation="2.33594"/>
<feComposite in2="hardAlpha" operator="out"/>
<feColorMatrix type="matrix" values="0 0 0 0 0.672326 0 0 0 0 0.774193 0 0 0 0 1 0 0 0 1 0"/>
<feBlend mode="normal" in2="BackgroundImageFix" result="effect1_dropShadow_26_850"/>
<feBlend mode="normal" in="SourceGraphic" in2="effect1_dropShadow_26_850" result="shape"/>
</filter>
<filter id="filter9_f_26_850" x="1766.19" y="216.644" width="21.8562" height="21.8562" filterUnits="userSpaceOnUse" color-interpolation-filters="sRGB">
<feFlood flood-opacity="0" result="BackgroundImageFix"/>
<feBlend mode="normal" in="SourceGraphic" in2="BackgroundImageFix" result="shape"/>
<feGaussianBlur stdDeviation="4.24531" result="effect1_foregroundBlur_26_850"/>
</filter>
<filter id="filter10_d_26_850" x="2045.08" y="416.228" width="29.6562" height="29.6562" filterUnits="userSpaceOnUse" color-interpolation-filters="sRGB">
<feFlood flood-opacity="0" result="BackgroundImageFix"/>
<feColorMatrix in="SourceAlpha" type="matrix" values="0 0 0 0 0 0 0 0 0 0 0 0 0 0 0 0 0 0 127 0" result="hardAlpha"/>
<feMorphology radius="3.65625" operator="dilate" in="SourceAlpha" result="effect1_dropShadow_26_850"/>
<feOffset dx="0.40625"/>
<feGaussianBlur stdDeviation="2.33594"/>
<feComposite in2="hardAlpha" operator="out"/>
<feColorMatrix type="matrix" values="0 0 0 0 0.672326 0 0 0 0 0.774193 0 0 0 0 1 0 0 0 1 0"/>
<feBlend mode="normal" in2="BackgroundImageFix" result="effect1_dropShadow_26_850"/>
<feBlend mode="normal" in="SourceGraphic" in2="effect1_dropShadow_26_850" result="shape"/>
</filter>
<filter id="filter11_f_26_850" x="2050.19" y="419.644" width="21.8562" height="21.8562" filterUnits="userSpaceOnUse" color-interpolation-filters="sRGB">
<feFlood flood-opacity="0" result="BackgroundImageFix"/>
<feBlend mode="normal" in="SourceGraphic" in2="BackgroundImageFix" result="shape"/>
<feGaussianBlur stdDeviation="4.24531" result="effect1_foregroundBlur_26_850"/>
</filter>
<filter id="filter12_f_26_850" x="2076.53" y="186.758" width="166.267" height="166.267" filterUnits="userSpaceOnUse" color-interpolation-filters="sRGB">
<feFlood flood-opacity="0" result="BackgroundImageFix"/>
<feBlend mode="normal" in="SourceGraphic" in2="BackgroundImageFix" result="shape"/>
<feGaussianBlur stdDeviation="31.9" result="effect1_foregroundBlur_26_850"/>
</filter>
<linearGradient id="paint0_linear_26_850" x1="1266.09" y1="80.1807" x2="1266.09" y2="454.912" gradientUnits="userSpaceOnUse">
<stop stop-color="#AECFFF"/>
<stop offset="1" stop-color="#1A56DB"/>
</linearGradient>
<clipPath id="clip0_26_850">
<rect width="58.88" height="58.88" fill="white" transform="translate(1844 69.5557)"/>
</clipPath>
<clipPath id="clip1_26_850">
<rect width="58.88" height="58.88" fill="white" transform="translate(2242 69.5557)"/>
</clipPath>
<clipPath id="clip2_26_850">
<rect width="58.88" height="58.88" fill="white" transform="translate(2369 414.556)"/>
</clipPath>
</defs>
</svg>
