<svg width="256" height="256" viewBox="0 0 256 256" fill="none" xmlns="http://www.w3.org/2000/svg">
<path d="M189.143 126.209L109.391 211.658C108.546 212.56 107.431 213.162 106.213 213.375C104.995 213.587 103.742 213.397 102.641 212.835C101.541 212.272 100.653 211.366 100.112 210.255C99.5715 209.144 99.4068 207.886 99.6432 206.673L110.082 154.457L69.0455 139.048C68.1642 138.718 67.3783 138.175 66.7579 137.468C66.1376 136.76 65.7022 135.91 65.4906 134.993C65.279 134.076 65.2979 133.121 65.5454 132.214C65.793 131.306 66.2616 130.473 66.9093 129.791L146.661 44.3423C147.506 43.4403 148.622 42.8377 149.84 42.6254C151.057 42.4131 152.311 42.6026 153.412 43.1654C154.512 43.7281 155.4 44.6335 155.94 45.7449C156.481 46.8564 156.646 48.1135 156.41 49.3268L145.942 101.6L186.979 116.988C187.854 117.32 188.633 117.862 189.249 118.567C189.864 119.271 190.297 120.117 190.508 121.028C190.719 121.94 190.702 122.889 190.459 123.793C190.217 124.697 189.755 125.526 189.115 126.209H189.143Z" fill="#1A56DB"/>
<g filter="url(#filter0_f_39_652)">
<ellipse cx="128" cy="128" rx="44" ry="9.8584" fill="white"/>
</g>
<path d="M135.19 122.122H96.5213" stroke="url(#paint0_linear_39_652)" stroke-width="5.91829" stroke-linecap="round"/>
<path d="M113.536 133.878L96.5212 133.878" stroke="url(#paint1_linear_39_652)" stroke-width="5.91829" stroke-linecap="round"/>
<defs>
<filter id="filter0_f_39_652" x="12.5477" y="46.6893" width="230.905" height="162.621" filterUnits="userSpaceOnUse" color-interpolation-filters="sRGB">
<feFlood flood-opacity="0" result="BackgroundImageFix"/>
<feBlend mode="normal" in="SourceGraphic" in2="BackgroundImageFix" result="shape"/>
<feGaussianBlur stdDeviation="35.7261" result="effect1_foregroundBlur_39_652"/>
</filter>
<linearGradient id="paint0_linear_39_652" x1="135.19" y1="122.122" x2="95.4247" y2="138.252" gradientUnits="userSpaceOnUse">
<stop stop-color="#EEEEEF"/>
<stop offset="1" stop-color="#A6A8AB"/>
</linearGradient>
<linearGradient id="paint1_linear_39_652" x1="113.536" y1="133.878" x2="93.789" y2="137.402" gradientUnits="userSpaceOnUse">
<stop stop-color="#EEEEEF"/>
<stop offset="1" stop-color="#A6A8AB"/>
</linearGradient>
</defs>
</svg>
