<svg width="100" height="100" viewBox="0 0 100 100" fill="none" xmlns="http://www.w3.org/2000/svg">
<path d="M43.6197 60.0833L40.9235 63.1269C38.8408 65.2098 36.1872 66.6283 33.2983 67.203C30.4094 67.7777 27.415 67.4828 24.6937 66.3557C21.9723 65.2285 19.6464 63.3197 18.0099 60.8706C16.3735 58.4215 15.5 55.5422 15.5 52.5967C15.5 49.6511 16.3735 46.7718 18.0099 44.3227C19.6464 41.8736 21.9723 39.9648 24.6937 38.8376C27.415 37.7105 30.4094 37.4156 33.2983 37.9903C36.1872 38.565 38.8408 39.9835 40.9235 42.0664L59.5765 63.1269C61.6592 65.2098 64.3128 66.6283 67.2017 67.203C70.0906 67.7777 73.085 67.4828 75.8063 66.3557C78.5277 65.2285 80.8536 63.3197 82.4901 60.8706C84.1265 58.4215 85 55.5422 85 52.5967C85 49.6511 84.1265 46.7718 82.4901 44.3227C80.8536 41.8736 78.5277 39.9648 75.8063 38.8376C73.085 37.7105 70.0906 37.4156 67.2017 37.9903C64.3128 38.565 61.6592 39.9835 59.5765 42.0664L56.8803 45.1101" stroke="black" stroke-width="1.86" stroke-linecap="round" stroke-linejoin="round"/>
<path d="M38.9341 46.7768C37.5182 48.0848 36.3738 49.659 35.5662 51.4093C34.7586 53.1596 34.3037 55.0519 34.2274 56.978C34.1511 58.9042 34.4549 60.8265 35.1216 62.6352C35.7882 64.4439 36.8045 66.1037 38.1126 67.5196C39.4206 68.9355 40.9948 70.08 42.7451 70.8875C44.4955 71.6951 46.3877 72.15 48.3139 72.2263C50.24 72.3026 52.1623 71.9988 53.9711 71.3321C55.7798 70.6655 57.4395 69.6492 58.8554 68.3411L48.8948 57.5589L38.9341 46.7768Z" fill="#D9D9D9"/>
<path d="M38.9341 46.7768C37.5182 48.0848 36.3738 49.659 35.5662 51.4093C34.7586 53.1596 34.3037 55.0519 34.2274 56.978C34.1511 58.9042 34.4549 60.8265 35.1216 62.6352C35.7882 64.4439 36.8045 66.1037 38.1126 67.5196C39.4206 68.9355 40.9948 70.08 42.7451 70.8875C44.4955 71.6951 46.3877 72.15 48.3139 72.2263C50.24 72.3026 52.1623 71.9988 53.9711 71.3321C55.7798 70.6655 57.4395 69.6492 58.8554 68.3411L48.8948 57.5589L38.9341 46.7768Z" fill="url(#paint0_linear_58_696)"/>
<path d="M64.8681 62.2205C66.3153 60.9472 67.4976 59.4013 68.3473 57.671C69.1971 55.9408 69.6978 54.0601 69.8207 52.1364C69.9437 50.2126 69.6865 48.2835 69.0639 46.4592C68.4414 44.6348 67.4655 42.951 66.1922 41.5037C64.9189 40.0565 63.3729 38.8743 61.6427 38.0245C59.9124 37.1747 58.0318 36.674 56.108 36.5511C54.1843 36.4281 52.2552 36.6853 50.4308 37.3079C48.6065 37.9305 46.9226 38.9063 45.4754 40.1796L55.1717 51.2001L64.8681 62.2205Z" fill="#D9D9D9"/>
<path d="M64.8681 62.2205C66.3153 60.9472 67.4976 59.4013 68.3473 57.671C69.1971 55.9408 69.6978 54.0601 69.8207 52.1364C69.9437 50.2126 69.6865 48.2835 69.0639 46.4592C68.4414 44.6348 67.4655 42.951 66.1922 41.5037C64.9189 40.0565 63.3729 38.8743 61.6427 38.0245C59.9124 37.1747 58.0318 36.674 56.108 36.5511C54.1843 36.4281 52.2552 36.6853 50.4308 37.3079C48.6065 37.9305 46.9226 38.9063 45.4754 40.1796L55.1717 51.2001L64.8681 62.2205Z" fill="#CBD8FF"/>
<defs>
<linearGradient id="paint0_linear_58_696" x1="38.1126" y1="67.5196" x2="59.6769" y2="47.5983" gradientUnits="userSpaceOnUse">
<stop stop-color="#1A56DB"/>
<stop offset="1" stop-color="#6BA3FF"/>
</linearGradient>
</defs>
</svg>
