<svg width="100" height="100" viewBox="0 0 100 100" fill="none" xmlns="http://www.w3.org/2000/svg">
<path d="M14.554 70.1859L36.775 42.7635L57.3034 70.1859L80.2049 33.1536" stroke="black" stroke-width="1.86"/>
<ellipse cx="80.8409" cy="30.1521" rx="6.15904" ry="6.15904" fill="#D9D9D9"/>
<ellipse cx="80.8409" cy="30.1521" rx="6.15904" ry="6.15904" fill="url(#paint0_linear_58_697)"/>
<path d="M57.355 64.6187C60.2428 64.6187 62.5835 66.9603 62.5835 69.8481C62.5834 72.736 60.2428 75.0766 57.355 75.0767C54.4671 75.0767 52.1256 72.736 52.1255 69.8481C52.1255 66.9602 54.4671 64.6187 57.355 64.6187Z" fill="white" stroke="black" stroke-width="1.86"/>
<path d="M37.2144 37.7543C40.1022 37.7544 42.4429 40.096 42.4429 42.9838C42.4428 45.8716 40.1022 48.2123 37.2144 48.2123C34.3265 48.2123 31.9849 45.8717 31.9849 42.9838C31.9849 40.0959 34.3264 37.7543 37.2144 37.7543Z" fill="white" stroke="black" stroke-width="1.86"/>
<path d="M17.6592 64.6187C20.547 64.6187 22.8877 66.9603 22.8877 69.8481C22.8876 72.736 20.547 75.0766 17.6592 75.0767C14.7713 75.0767 12.4298 72.736 12.4297 69.8481C12.4297 66.9602 14.7713 64.6187 17.6592 64.6187Z" fill="white" stroke="black" stroke-width="1.86"/>
<defs>
<linearGradient id="paint0_linear_58_697" x1="80.8409" y1="23.9931" x2="80.8409" y2="36.3112" gradientUnits="userSpaceOnUse">
<stop stop-color="#1A56DB"/>
<stop offset="1" stop-color="#6BA3FF"/>
</linearGradient>
</defs>
</svg>
