<svg width="100" height="100" viewBox="0 0 100 100" fill="none" xmlns="http://www.w3.org/2000/svg">
<mask id="path-1-inside-1_58_692" fill="white">
<path d="M73.4322 53.1326C73.4322 59.0398 71.6805 64.8144 68.3986 69.726C65.1167 74.6377 60.4521 78.4659 54.9945 80.7265C49.5369 82.9871 43.5316 83.5786 37.7379 82.4261C31.9441 81.2737 26.6223 78.4291 22.4452 74.252C18.2682 70.075 15.4236 64.7531 14.2712 58.9594C13.1187 53.1657 13.7102 47.1604 15.9708 41.7028C18.2314 36.2452 22.0596 31.5806 26.9713 28.2987C31.8829 25.0168 37.6575 23.2651 43.5647 23.2651L43.5647 53.1326H73.4322Z"/>
</mask>
<path d="M73.4322 53.1326C73.4322 59.0398 71.6805 64.8144 68.3986 69.726C65.1167 74.6377 60.4521 78.4659 54.9945 80.7265C49.5369 82.9871 43.5316 83.5786 37.7379 82.4261C31.9441 81.2737 26.6223 78.4291 22.4452 74.252C18.2682 70.075 15.4236 64.7531 14.2712 58.9594C13.1187 53.1657 13.7102 47.1604 15.9708 41.7028C18.2314 36.2452 22.0596 31.5806 26.9713 28.2987C31.8829 25.0168 37.6575 23.2651 43.5647 23.2651L43.5647 53.1326H73.4322Z" fill="white" stroke="black" stroke-width="3.72" mask="url(#path-1-inside-1_58_692)"/>
<path d="M49.177 24.0413C52.0535 24.0448 54.9011 24.6148 57.5572 25.7189C60.2134 26.8229 62.6261 28.4393 64.6575 30.4757C66.689 32.5122 68.2995 34.9288 69.397 37.5877C70.4945 40.2465 71.0575 43.0955 71.054 45.9719L49.1502 45.9451L49.177 24.0413Z" fill="#D9D9D9"/>
<path d="M49.177 24.0413C52.0535 24.0448 54.9011 24.6148 57.5572 25.7189C60.2134 26.8229 62.6261 28.4393 64.6575 30.4757C66.689 32.5122 68.2995 34.9288 69.397 37.5877C70.4945 40.2465 71.0575 43.0955 71.054 45.9719L49.1502 45.9451L49.177 24.0413Z" fill="url(#paint0_linear_58_692)"/>
<path d="M56.8569 31.5999H81.7563H82.3788" stroke="black" stroke-width="1.92555" stroke-linecap="round"/>
<path d="M56.8569 44.8796H69.8127H70.1366" stroke="black" stroke-width="1.92555" stroke-linecap="round"/>
<path d="M73.4563 38.2401L86.4121 38.2401L86.736 38.2401" stroke="black" stroke-width="1.92555" stroke-linecap="round"/>
<defs>
<linearGradient id="paint0_linear_58_692" x1="63.9222" y1="62.1181" x2="34.3782" y2="29.7721" gradientUnits="userSpaceOnUse">
<stop stop-color="#1A56DB"/>
<stop offset="1" stop-color="#6BA3FF"/>
</linearGradient>
</defs>
</svg>
