<svg width="100" height="100" viewBox="0 0 100 100" fill="none" xmlns="http://www.w3.org/2000/svg">
<path d="M37.8652 44.8013H64.3432" stroke="black" stroke-width="2.11824" stroke-linecap="round"/>
<path d="M49.5061 58.9672L63.6907 58.9672" stroke="black" stroke-width="2.11824" stroke-linecap="round"/>
<path d="M52.6936 51.1558L64.3439 51.1558" stroke="black" stroke-width="2.11824" stroke-linecap="round"/>
<path d="M52.6936 51.1558L64.3439 51.1558" stroke="url(#paint0_linear_58_693)" stroke-width="2.11824" stroke-linecap="round"/>
<path d="M49.152 78.8253H73.9751C74.6335 78.8253 75.2649 78.5638 75.7304 78.0983C76.1959 77.6328 76.4574 77.0014 76.4574 76.343V36.6261L59.0813 19.25H29.2936C28.6352 19.25 28.0039 19.5115 27.5383 19.9771C27.0728 20.4426 26.8113 21.074 26.8113 21.7323V44.0731" stroke="black" stroke-width="1.86" stroke-linecap="round" stroke-linejoin="round"/>
<path d="M59.0808 19.25V36.6261H76.457" stroke="black" stroke-width="2.11824" stroke-linecap="round" stroke-linejoin="round"/>
<path d="M22.6034 73.8137L12.8353 70.2142C12.5659 70.1148 12.3335 69.9352 12.1694 69.6996C12.0052 69.4641 11.9172 69.1839 11.9172 68.8968C11.9172 68.6097 12.0052 68.3295 12.1694 68.0939C12.3335 67.8583 12.5659 67.6788 12.8353 67.5793L22.6034 63.9799L26.2029 54.2117C26.3023 53.9424 26.4819 53.71 26.7174 53.5458C26.953 53.3817 27.2332 53.2937 27.5203 53.2937C27.8074 53.2937 28.0876 53.3817 28.3232 53.5458C28.5587 53.71 28.7383 53.9424 28.8377 54.2117L32.4372 63.9799L42.2054 67.5793C42.4747 67.6788 42.7071 67.8583 42.8712 68.0939C43.0354 68.3295 43.1234 68.6097 43.1234 68.8968C43.1234 69.1839 43.0354 69.4641 42.8712 69.6996C42.7071 69.9352 42.4747 70.1148 42.2054 70.2142L32.4372 73.8137L28.8377 83.5818C28.7383 83.8512 28.5587 84.0836 28.3232 84.2477C28.0876 84.4118 27.8074 84.4998 27.5203 84.4998C27.2332 84.4998 26.953 84.4118 26.7174 84.2477C26.4819 84.0836 26.3023 83.8512 26.2029 83.5818L22.6034 73.8137Z" fill="#D9D9D9"/>
<path d="M22.6034 73.8137L12.8353 70.2142C12.5659 70.1148 12.3335 69.9352 12.1694 69.6996C12.0052 69.4641 11.9172 69.1839 11.9172 68.8968C11.9172 68.6097 12.0052 68.3295 12.1694 68.0939C12.3335 67.8583 12.5659 67.6788 12.8353 67.5793L22.6034 63.9799L26.2029 54.2117C26.3023 53.9424 26.4819 53.71 26.7174 53.5458C26.953 53.3817 27.2332 53.2937 27.5203 53.2937C27.8074 53.2937 28.0876 53.3817 28.3232 53.5458C28.5587 53.71 28.7383 53.9424 28.8377 54.2117L32.4372 63.9799L42.2054 67.5793C42.4747 67.6788 42.7071 67.8583 42.8712 68.0939C43.0354 68.3295 43.1234 68.6097 43.1234 68.8968C43.1234 69.1839 43.0354 69.4641 42.8712 69.6996C42.7071 69.9352 42.4747 70.1148 42.2054 70.2142L32.4372 73.8137L28.8377 83.5818C28.7383 83.8512 28.5587 84.0836 28.3232 84.2477C28.0876 84.4118 27.8074 84.4998 27.5203 84.4998C27.2332 84.4998 26.953 84.4118 26.7174 84.2477C26.4819 84.0836 26.3023 83.8512 26.2029 83.5818L22.6034 73.8137Z" fill="url(#paint1_linear_58_693)"/>
<defs>
<linearGradient id="paint0_linear_58_693" x1="48.4571" y1="51.6558" x2="58.5154" y2="52.2164" gradientUnits="userSpaceOnUse">
<stop stop-color="#1A56DB"/>
<stop offset="1" stop-color="#6BA3FF"/>
</linearGradient>
<linearGradient id="paint1_linear_58_693" x1="27.5203" y1="53.2937" x2="27.5203" y2="84.4998" gradientUnits="userSpaceOnUse">
<stop stop-color="#1A56DB"/>
<stop offset="1" stop-color="#6BA3FF"/>
</linearGradient>
</defs>
</svg>
