<svg width="100" height="100" viewBox="0 0 100 100" fill="none" xmlns="http://www.w3.org/2000/svg">
<path d="M67.1695 34.0383C67.1695 31.6695 66.7029 29.3239 65.7964 27.1354C64.8899 24.9469 63.5612 22.9583 61.8862 21.2833C60.2112 19.6083 58.2226 18.2796 56.0341 17.3731C53.8456 16.4666 51.5 16 49.1311 16C46.7623 16 44.4167 16.4666 42.2281 17.3731C40.0396 18.2796 38.0511 19.6083 36.3761 21.2833C34.7011 22.9583 33.3724 24.9469 32.4659 27.1354C31.5593 29.3239 31.0928 31.6695 31.0928 34.0383L49.1311 34.0383H67.1695Z" fill="#D9D9D9"/>
<path d="M67.1695 34.0383C67.1695 31.6695 66.7029 29.3239 65.7964 27.1354C64.8899 24.9469 63.5612 22.9583 61.8862 21.2833C60.2112 19.6083 58.2226 18.2796 56.0341 17.3731C53.8456 16.4666 51.5 16 49.1311 16C46.7623 16 44.4167 16.4666 42.2281 17.3731C40.0396 18.2796 38.0511 19.6083 36.3761 21.2833C34.7011 22.9583 33.3724 24.9469 32.4659 27.1354C31.5593 29.3239 31.0928 31.6695 31.0928 34.0383L49.1311 34.0383H67.1695Z" fill="url(#paint0_linear_58_691)"/>
<path d="M35.5105 38.7157C41.189 38.716 45.7917 43.3194 45.7917 48.9979C45.7915 54.6762 41.1888 59.2789 35.5105 59.2792C29.832 59.2792 25.2285 54.6764 25.2283 48.9979C25.2283 43.3192 29.8318 38.7157 35.5105 38.7157Z" stroke="#2C2C2C" stroke-width="1.85655"/>
<path d="M19.1108 80.9617V78.1823C19.1108 70.507 25.3329 64.285 33.0081 64.285H40.2347C47.9099 64.285 54.132 70.5071 54.132 78.1823V83" stroke="#2C2C2C" stroke-width="1.85655"/>
<path d="M62.2666 38.7157C67.9451 38.716 72.5479 43.3194 72.5479 48.9979C72.5476 54.6762 67.9449 59.2789 62.2666 59.2792C56.5881 59.2792 51.9846 54.6764 51.9844 48.9979C51.9844 43.3192 56.5879 38.7157 62.2666 38.7157Z" stroke="#2C2C2C" stroke-width="1.85655"/>
<path d="M46.9795 83C46.9795 81.5195 46.9795 79.8709 46.9795 78.183C46.9795 70.5078 53.2015 64.285 60.8768 64.285H66.9916C74.6668 64.285 80.8888 70.5071 80.8888 78.1823V83" stroke="#2C2C2C" stroke-width="1.85655"/>
<defs>
<linearGradient id="paint0_linear_58_691" x1="49.1311" y1="16" x2="49.1311" y2="52.0767" gradientUnits="userSpaceOnUse">
<stop stop-color="#1A56DB"/>
<stop offset="1" stop-color="#6BA3FF"/>
</linearGradient>
</defs>
</svg>
