<svg width="100" height="100" viewBox="0 0 100 100" fill="none" xmlns="http://www.w3.org/2000/svg">
<g clip-path="url(#clip0_24_159)">
<path d="M53.5321 28.4836L74.97 65.7095C76.4726 68.3322 74.5313 71.5702 71.4379 71.5702H28.5621C25.4687 71.5702 23.5274 68.3322 25.03 65.7095L46.4679 28.4836C48.0121 25.7971 51.9879 25.7971 53.5321 28.4836Z" stroke="#AECFFF" stroke-width="2" stroke-linecap="round" stroke-linejoin="round"/>
<path d="M50.0005 61.0098C51.9233 61.01 53.4819 62.5693 53.4819 64.4922C53.4817 66.4148 51.9231 67.9734 50.0005 67.9736C48.0776 67.9736 46.5183 66.415 46.5181 64.4922C46.5181 62.5692 48.0775 61.0098 50.0005 61.0098Z" fill="black"/>
<path d="M50.0005 61.0098C51.9233 61.01 53.4819 62.5693 53.4819 64.4922C53.4817 66.4148 51.9231 67.9734 50.0005 67.9736C48.0776 67.9736 46.5183 66.415 46.5181 64.4922C46.5181 62.5692 48.0775 61.0098 50.0005 61.0098Z" fill="url(#paint0_linear_24_159)"/>
<path d="M50.0005 61.0098C51.9233 61.01 53.4819 62.5693 53.4819 64.4922C53.4817 66.4148 51.9231 67.9734 50.0005 67.9736C48.0776 67.9736 46.5183 66.415 46.5181 64.4922C46.5181 62.5692 48.0775 61.0098 50.0005 61.0098Z" stroke="white" stroke-width="0.302775"/>
<path d="M49.9999 36.9521C50.5773 36.9521 51.0458 37.4198 51.0458 37.9971V53.7852C51.0457 54.3624 50.5772 54.8301 49.9999 54.8301C49.4227 54.83 48.9551 54.3624 48.955 53.7852V37.9971C48.9551 37.4198 49.4227 36.9522 49.9999 36.9521Z" stroke="white" stroke-width="1.65355"/>
<path d="M49.9806 37.2224C50.4193 37.2224 50.7754 37.5776 50.7755 38.0164V53.7898C50.7755 54.2286 50.4193 54.5847 49.9806 54.5847C49.5419 54.5846 49.1866 54.2285 49.1866 53.7898V38.0164C49.1867 37.5777 49.5419 37.2225 49.9806 37.2224Z" stroke="url(#paint1_linear_24_159)" stroke-width="1.65355"/>
</g>
<defs>
<linearGradient id="paint0_linear_24_159" x1="49.2059" y1="60.8584" x2="49.2059" y2="69.0981" gradientUnits="userSpaceOnUse">
<stop stop-color="#1A56DB"/>
<stop offset="1" stop-color="#6BA3FF"/>
</linearGradient>
<linearGradient id="paint1_linear_24_159" x1="49.6264" y1="36.3953" x2="49.6264" y2="57.9575" gradientUnits="userSpaceOnUse">
<stop stop-color="#1A56DB"/>
<stop offset="1" stop-color="#6BA3FF"/>
</linearGradient>
<clipPath id="clip0_24_159">
<rect width="62.7499" height="62.7499" fill="white" transform="translate(18.6251 18.625)"/>
</clipPath>
</defs>
</svg>
