<svg viewBox="0 0 256 256" fill="none" xmlns="http://www.w3.org/2000/svg"><path d="M39.6777 123.051L79.0994 123.051" stroke="url(#ri_p0)" stroke-width="8.76038"/><path d="M39.6777 162.473L79.0994 162.473" stroke="url(#ri_p1)" stroke-width="8.76038"/><path d="M17.7769 140.572L79.0995 140.572" stroke="url(#ri_p2)" stroke-width="8.76038"/><ellipse cx="166.107" cy="129.627" rx="19.112" ry="19.8471" fill="url(#ri_p3)"/><path d="M165.643 95.4266C183.52 95.4266 198.141 110.632 198.141 129.55C198.141 148.467 183.52 163.673 165.643 163.673C147.765 163.673 133.145 148.467 133.145 129.55C133.145 110.632 147.765 95.4266 165.643 95.4266Z" stroke="url(#ri_p4)" stroke-width="3.24982"/><path d="M177.173 122.586L235.515 96.4329" stroke="#AECFFF" stroke-width="4.02358" stroke-linecap="round" stroke-linejoin="round"/><path d="M203.326 89.2562C193.284 79.9744 179.855 74.3029 165.102 74.3029C133.992 74.3029 108.772 99.5227 108.772 130.633C108.772 161.743 133.992 186.963 165.102 186.963C196.212 186.963 221.432 161.743 221.432 130.633C221.432 128.938 221.357 127.26 221.211 125.604" stroke="url(#ri_p5)" stroke-width="4.32535" stroke-linecap="round"/><path d="M165.103 204.296C205.486 204.296 238.223 171.558 238.223 131.175C238.223 128.975 238.126 126.797 237.936 124.646" stroke="url(#ri_p6)" stroke-width="5.61464" stroke-linecap="round"/><defs><linearGradient id="ri_p3" x1="161.93" y1="109.78" x2="161.93" y2="154.79" gradientUnits="userSpaceOnUse"><stop stop-color="#1A56DB"/><stop offset="1" stop-color="#6BA3FF"/></linearGradient><radialGradient id="ri_p4" cx="0" cy="0" r="1" gradientTransform="matrix(-9.74945 69.8711 -63.1688 -11.5075 185.142 116.55)" gradientUnits="userSpaceOnUse"><stop stop-color="#BFC1C4"/><stop offset="0.31" stop-color="#6E7073"/><stop offset="0.62" stop-color="#6E7073"/><stop offset="1" stop-color="#BFC1C4" stop-opacity="0"/></radialGradient><radialGradient id="ri_p5" cx="0" cy="0" r="1" gradientTransform="matrix(-14.9915 175.648 -166.765 -19.6541 192.638 49.0334)" gradientUnits="userSpaceOnUse"><stop stop-color="#BFC1C4"/><stop offset="0.31" stop-color="#6E7073"/><stop offset="0.62" stop-color="#6E7073"/><stop offset="1" stop-color="#BFC1C4" stop-opacity="0"/></radialGradient><radialGradient id="ri_p6" cx="0" cy="0" r="1" gradientTransform="matrix(-19.4601 228.004 -216.474 -25.5125 200.846 25.2522)" gradientUnits="userSpaceOnUse"><stop stop-color="#BFC1C4"/><stop offset="0.31" stop-color="#6E7073"/><stop offset="0.62" stop-color="#6E7073"/><stop offset="1" stop-color="#BFC1C4" stop-opacity="0"/></radialGradient><linearGradient id="ri_p0" x1="32.4664" y1="122.49" x2="60.7357" y2="158.586" gradientUnits="userSpaceOnUse"><stop stop-color="#BFC1C4" stop-opacity="0"/><stop offset="1" stop-color="#6E7073"/></linearGradient><linearGradient id="ri_p1" x1="32.4664" y1="161.912" x2="60.7357" y2="198.008" gradientUnits="userSpaceOnUse"><stop stop-color="#BFC1C4" stop-opacity="0"/><stop offset="1" stop-color="#6E7073"/></linearGradient><linearGradient id="ri_p2" x1="6.5593" y1="140.011" x2="29.9501" y2="186.469" gradientUnits="userSpaceOnUse"><stop stop-color="#BFC1C4" stop-opacity="0"/><stop offset="1" stop-color="#6E7073"/></linearGradient></defs></svg>
