<svg viewBox="0 0 256 256" fill="none" xmlns="http://www.w3.org/2000/svg"><path d="M20.6113 128.994L60.4721 128.994" stroke="url(#fe_p0)" stroke-width="8.85795"/><path d="M20.6113 168.855L60.4721 168.855" stroke="url(#fe_p1)" stroke-width="8.85795"/><path d="M-1.53369 146.71L60.4719 146.71" stroke="url(#fe_p2)" stroke-width="8.85795"/><path d="M191.912 146.709L218.485 146.709" stroke="#1A56DB" stroke-width="8.85795"/><path d="M162.767 146.709L178.626 146.709" stroke="#1A56DB" stroke-width="7.49598"/><path d="M125.479 145.908H136.781" stroke="#1A56DB" stroke-width="8.85795"/><path d="M140.329 83.7036C172.088 83.7036 197.835 109.449 197.835 141.208C197.835 172.968 172.088 198.714 140.329 198.714C108.57 198.714 82.8242 172.968 82.8242 141.208C82.8244 109.449 108.57 83.7037 140.329 83.7036Z" stroke="url(#fe_p3)" stroke-width="6.57203"/><path d="M189.697 105.803C211.066 105.803 228.39 123.126 228.39 144.495C228.39 165.865 211.066 183.189 189.697 183.189C168.327 183.189 151.004 165.865 151.004 144.495C151.004 123.126 168.327 105.803 189.697 105.803Z" stroke="url(#fe_p4)" stroke-opacity="0.4" stroke-width="6.7647"/><ellipse cx="230.13" cy="147.781" rx="14.7871" ry="14.7871" fill="#1A56DB"/><defs><radialGradient id="fe_p3" cx="0" cy="0" r="1" gradientUnits="userSpaceOnUse" gradientTransform="translate(98.8133 107.106) rotate(66.3706) scale(103.578)"><stop stop-color="#BFC1C4"/><stop offset="1" stop-color="#6E7073"/></radialGradient><radialGradient id="fe_p4" cx="0" cy="0" r="1" gradientUnits="userSpaceOnUse" gradientTransform="translate(160.963 120.892) rotate(66.3706) scale(71.6891)"><stop stop-color="#BFC1C4"/><stop offset="1" stop-color="#6E7073"/></radialGradient><linearGradient id="fe_p0" x1="13.3197" y1="128.433" x2="41.5124" y2="164.832" gradientUnits="userSpaceOnUse"><stop stop-color="#BFC1C4" stop-opacity="0"/><stop offset="1" stop-color="#6E7073"/></linearGradient><linearGradient id="fe_p1" x1="13.3197" y1="168.294" x2="41.5124" y2="204.693" gradientUnits="userSpaceOnUse"><stop stop-color="#BFC1C4" stop-opacity="0"/><stop offset="1" stop-color="#6E7073"/></linearGradient><linearGradient id="fe_p2" x1="-12.8762" y1="146.149" x2="10.3599" y2="192.815" gradientUnits="userSpaceOnUse"><stop stop-color="#BFC1C4" stop-opacity="0"/><stop offset="1" stop-color="#6E7073"/></linearGradient></defs></svg>
