<svg width="44" height="44" viewBox="0 0 100 100" fill="none" xmlns="http://www.w3.org/2000/svg"><path d="M48.3325 12.8896C67.9797 12.8897 83.9067 28.8167 83.9067 48.4639C83.9067 68.111 67.9796 84.038 48.3325 84.0381C28.6853 84.0381 12.7584 68.111 12.7583 48.4639C12.7583 28.8167 28.6853 12.8896 48.3325 12.8896Z" stroke="url(#onb_r0)" stroke-width="1.77872"/><path d="M48.3325 13.7783C67.4885 13.7784 83.0171 29.3079 83.0171 48.4639C83.017 67.6198 67.4885 83.1484 48.3325 83.1484C29.1765 83.1484 13.647 67.6199 13.647 48.4639C13.647 29.3078 29.1765 13.7783 48.3325 13.7783Z" stroke="url(#onb_r1)" stroke-width="3.55744"/><path d="M84.7962 94.7103C84.7962 74.5719 68.4708 58.2465 48.3324 58.2465C28.194 58.2465 11.8687 74.5719 11.8687 94.7103" stroke="url(#onb_r3)" stroke-width="3.55744"/><path d="M48.333 28.0078C54.7182 28.0081 59.8945 33.1851 59.8945 39.5703C59.8943 45.9553 54.718 51.1316 48.333 51.1319C41.9478 51.1319 36.7707 45.9555 36.7705 39.5703C36.7705 33.185 41.9477 28.0078 48.333 28.0078Z" stroke="#D9D9D9" stroke-width="3.55744"/><path d="M48.333 28.0078C54.7182 28.0081 59.8945 33.1851 59.8945 39.5703C59.8943 45.9553 54.718 51.1316 48.333 51.1319C41.9478 51.1319 36.7707 45.9555 36.7705 39.5703C36.7705 33.185 41.9477 28.0078 48.333 28.0078Z" stroke="url(#onb_r4)" stroke-width="3.55744"/><ellipse cx="74.9229" cy="66.6699" rx="13.25" ry="13.7596" fill="#AECFFF"/><ellipse cx="74.9229" cy="66.6699" rx="13.25" ry="13.7596" fill="url(#onb_l5)"/><path d="M68.9395 67.2683L72.5295 70.8583L80.9064 62.4815" stroke="#E4EFFF" stroke-width="1.24332" stroke-linecap="round" stroke-linejoin="round"/><defs><radialGradient id="onb_r0" cx="0" cy="0" r="1" gradientUnits="userSpaceOnUse" gradientTransform="translate(23.4303 28.0085) rotate(66.3706) scale(62.128 62.128)"><stop stop-color="#EEEEEF"/><stop offset="1" stop-color="#A6A8AB"/></radialGradient><radialGradient id="onb_r1" cx="0" cy="0" r="1" gradientUnits="userSpaceOnUse" gradientTransform="translate(23.4303 28.0085) rotate(66.3706) scale(62.128 62.128)"><stop stop-color="#EEEEEF"/><stop offset="1" stop-color="#A6A8AB"/></radialGradient><radialGradient id="onb_r3" cx="0" cy="0" r="1" gradientUnits="userSpaceOnUse" gradientTransform="translate(11.8687 93.8209) rotate(-13.707) scale(75.0654 75.0654)"><stop stop-color="#EEEEEF" stop-opacity="0"/><stop offset="0.480802" stop-color="#D0D0D0"/><stop offset="1" stop-color="#EEEEEF" stop-opacity="0"/></radialGradient><radialGradient id="onb_r4" cx="0" cy="0" r="1" gradientTransform="matrix(23.7524 -18.8718 9.43589 47.5049 36.6191 50.9581)" gradientUnits="userSpaceOnUse"><stop stop-color="#EEEEEF" stop-opacity="0"/><stop offset="0.480802" stop-color="#A6A8AB"/><stop offset="1" stop-color="#EEEEEF" stop-opacity="0"/></radialGradient><linearGradient id="onb_l5" x1="72.0269" y1="52.9103" x2="72.0269" y2="84.1147" gradientUnits="userSpaceOnUse"><stop stop-color="#1A56DB"/><stop offset="1" stop-color="#6BA3FF"/></linearGradient></defs></svg>
