<svg width="44" height="44" viewBox="0 0 100 100" fill="none" xmlns="http://www.w3.org/2000/svg"><path d="M32.2399 64.174C29.2414 61.8316 26.8127 58.8401 25.1362 55.4244C23.4597 52.0086 22.5791 48.2573 22.5604 44.4524C22.4848 30.7813 33.5074 19.4024 47.1754 19.0871C52.4723 18.9588 57.6752 20.5018 62.0457 23.4972C66.4163 26.4926 69.7326 30.7883 71.5241 35.7747C73.3155 40.7612 73.4913 46.1852 72.0263 51.2771C70.5613 56.3691 67.53 60.8704 63.3625 64.1424C62.4433 64.8552 61.6984 65.7678 61.1843 66.8112C60.6703 67.8546 60.4006 69.0014 60.3956 70.1645V72.0563C60.3956 72.7253 60.1298 73.3668 59.6568 73.8399C59.1838 74.3129 58.5422 74.5786 57.8733 74.5786H37.6945C37.0255 74.5786 36.384 74.3129 35.9109 73.8399C35.4379 73.3668 35.1722 72.7253 35.1722 72.0563V70.1645C35.171 69.0088 34.9062 67.8685 34.3981 66.8305C33.89 65.7924 33.1519 64.8839 32.2399 64.174Z" stroke="url(#paint0_radial_28_464)" stroke-width="2.47361" stroke-linecap="round" stroke-linejoin="round"/><ellipse cx="66.4195" cy="26.7766" rx="11.0206" ry="11.4445" fill="#AECFFF"/><ellipse cx="66.4195" cy="26.7766" rx="11.0206" ry="11.4445" fill="url(#paint1_linear_28_464)"/><g filter="url(#filter0_f_28_464)"><ellipse cx="67.0887" cy="26.5758" rx="3.7479" ry="3.7479" fill="white"/></g><path d="M35.1724 84.6679H60.3958" stroke="url(#paint2_radial_28_464)" stroke-width="2.47361" stroke-linecap="round" stroke-linejoin="round"/><defs><filter id="filter0_f_28_464" x="50.9728" y="10.4598" width="32.2317" height="32.2319" filterUnits="userSpaceOnUse" color-interpolation-filters="sRGB"><feFlood flood-opacity="0" result="BackgroundImageFix"/><feBlend mode="normal" in="SourceGraphic" in2="BackgroundImageFix" result="shape"/><feGaussianBlur stdDeviation="6.18403" result="effect1_foregroundBlur_28_464"/></filter><radialGradient id="paint0_radial_28_464" cx="0" cy="0" r="1" gradientTransform="matrix(-7.20707 54.2376 -46.6962 -8.93273 62.199 36.7384)" gradientUnits="userSpaceOnUse"><stop stop-color="#EEEEEF"/><stop offset="0.309632" stop-color="#A6A8AB"/><stop offset="0.619011" stop-color="#A6A8AB"/><stop offset="1" stop-color="#EEEEEF" stop-opacity="0"/></radialGradient><linearGradient id="paint1_linear_28_464" x1="64.0108" y1="15.3321" x2="64.0108" y2="41.2862" gradientUnits="userSpaceOnUse"><stop stop-color="#1A56DB"/><stop offset="1" stop-color="#6BA3FF"/></linearGradient><radialGradient id="paint2_radial_28_464" cx="0" cy="0" r="1" gradientTransform="matrix(-3.60335 0.977273 -23.3469 -0.160953 54.9908 84.9861)" gradientUnits="userSpaceOnUse"><stop stop-color="#EEEEEF"/><stop offset="0.309632" stop-color="#A6A8AB"/><stop offset="0.619011" stop-color="#A6A8AB"/><stop offset="1" stop-color="#EEEEEF" stop-opacity="0"/></radialGradient></defs></svg>
