<svg width="100" height="100" viewBox="0 0 100 100" fill="none" xmlns="http://www.w3.org/2000/svg">
<mask id="path-1-inside-1_59_812" fill="white">
<path d="M73.2156 54.1326C73.2156 58.0548 72.4431 61.9387 70.9421 65.5623C69.4411 69.186 67.2411 72.4786 64.4676 75.252C61.6942 78.0255 58.4016 80.2255 54.7779 81.7265C51.1543 83.2275 47.2704 84 43.3482 84C39.4259 84 35.5421 83.2275 31.9184 81.7265C28.2947 80.2255 25.0021 78.0255 22.2287 75.252C19.4552 72.4786 17.2552 69.186 15.7542 65.5623C14.2533 61.9387 13.4807 58.0548 13.4807 54.1326L43.3482 54.1326H73.2156Z"/>
</mask>
<path d="M73.2156 54.1326C73.2156 58.0548 72.4431 61.9387 70.9421 65.5623C69.4411 69.186 67.2411 72.4786 64.4676 75.252C61.6942 78.0255 58.4016 80.2255 54.7779 81.7265C51.1543 83.2275 47.2704 84 43.3482 84C39.4259 84 35.5421 83.2275 31.9184 81.7265C28.2947 80.2255 25.0021 78.0255 22.2287 75.252C19.4552 72.4786 17.2552 69.186 15.7542 65.5623C14.2533 61.9387 13.4807 58.0548 13.4807 54.1326L43.3482 54.1326H73.2156Z" stroke="black" stroke-width="3.72" mask="url(#path-1-inside-1_59_812)"/>
<path d="M48.958 27.0413C48.9594 25.9367 49.8578 25.0329 50.9576 25.135C53.1491 25.3383 55.3013 25.8712 57.3407 26.7189C59.9968 27.8229 62.4095 29.4393 64.441 31.4757C66.4724 33.5122 68.0829 35.9288 69.1804 38.5877C70.0231 40.6291 70.5507 42.7826 70.7487 44.9746C70.848 46.0747 69.942 46.9708 68.8375 46.9695L50.9336 46.9475C49.8291 46.9462 48.9347 46.0497 48.9361 44.9451L48.958 27.0413Z" fill="#D9D9D9"/>
<path d="M48.958 27.0413C48.9594 25.9367 49.8578 25.0329 50.9576 25.135C53.1491 25.3383 55.3013 25.8712 57.3407 26.7189C59.9968 27.8229 62.4095 29.4393 64.441 31.4757C66.4724 33.5122 68.0829 35.9288 69.1804 38.5877C70.0231 40.6291 70.5507 42.7826 70.7487 44.9746C70.848 46.0747 69.942 46.9708 68.8375 46.9695L50.9336 46.9475C49.8291 46.9462 48.9347 46.0497 48.9361 44.9451L48.958 27.0413Z" fill="url(#paint0_linear_59_812)"/>
<path d="M56.6404 32.5999H81.5398H82.1623" stroke="black" stroke-width="1.92555" stroke-linecap="round"/>
<path d="M56.6404 45.8798H69.5962H69.9201" stroke="black" stroke-width="1.92555" stroke-linecap="round"/>
<path d="M73.2397 39.2402L86.1955 39.2402L86.5194 39.2402" stroke="black" stroke-width="1.92555" stroke-linecap="round"/>
<defs>
<linearGradient id="paint0_linear_59_812" x1="63.7057" y1="63.1181" x2="34.1616" y2="30.7721" gradientUnits="userSpaceOnUse">
<stop stop-color="#1A56DB"/>
<stop offset="1" stop-color="#6BA3FF"/>
</linearGradient>
</defs>
</svg>
