<svg width="100" height="100" viewBox="0 0 100 100" fill="none" xmlns="http://www.w3.org/2000/svg">
<g clip-path="url(#clip0_59_798)">
<path d="M49.0777 21.563C41.5782 21.2527 34.2354 23.7685 28.502 28.6126C22.7685 33.4567 19.062 40.2763 18.1156 47.7223C17.1693 55.1683 19.0521 62.6983 23.3916 68.8226C27.7311 74.9469 34.2112 79.2194 41.5499 80.7949C48.8885 82.3704 56.5512 81.1341 63.0221 77.3307C69.4929 73.5272 74.3005 67.4335 76.4938 60.2552" stroke="black" stroke-width="1.86" stroke-linecap="round" stroke-linejoin="round"/>
<path d="M50.9198 36.5193C47.1712 35.6772 43.246 36.1752 39.8264 37.9268C36.4068 39.6784 33.709 42.5727 32.2019 46.1069C30.6949 49.6411 30.4738 53.5916 31.5771 57.2718C32.6803 60.9521 35.0383 64.1294 38.2411 66.2516C41.4438 68.3738 45.289 69.3067 49.1082 68.8882C52.9274 68.4697 56.4792 66.7261 59.1464 63.9607C61.8135 61.1952 63.4274 57.5826 63.7074 53.7507" stroke="black" stroke-width="1.86" stroke-linecap="round" stroke-linejoin="round"/>
<circle cx="47.7866" cy="51.5016" r="6" stroke="url(#paint0_linear_59_798)" stroke-width="4"/>
<path d="M56.8838 18.8832C60.2901 18.8874 63.6621 19.5624 66.8075 20.8698C69.9529 22.1772 72.8099 24.0913 75.2155 26.5028C77.6212 28.9143 79.5283 31.7761 80.8279 34.9246C82.1276 38.0732 82.7943 41.4469 82.7902 44.8531L56.852 44.8213L56.8838 18.8832Z" fill="#D9D9D9"/>
<path d="M56.8838 18.8832C60.2901 18.8874 63.6621 19.5624 66.8075 20.8698C69.9529 22.1772 72.8099 24.0913 75.2155 26.5028C77.6212 28.9143 79.5283 31.7761 80.8279 34.9246C82.1276 38.0732 82.7943 41.4469 82.7902 44.8531L56.852 44.8213L56.8838 18.8832Z" fill="url(#paint1_linear_59_798)"/>
</g>
<defs>
<linearGradient id="paint0_linear_59_798" x1="47.7866" y1="43.5016" x2="47.7866" y2="59.5016" gradientUnits="userSpaceOnUse">
<stop stop-color="#1A56DB"/>
<stop offset="1" stop-color="#6BA3FF"/>
</linearGradient>
<linearGradient id="paint1_linear_59_798" x1="74.3448" y1="63.9731" x2="39.3593" y2="25.6695" gradientUnits="userSpaceOnUse">
<stop stop-color="#1A56DB"/>
<stop offset="1" stop-color="#6BA3FF"/>
</linearGradient>
<clipPath id="clip0_59_798">
<rect width="80" height="80" fill="white" transform="translate(7.78662 11.5)"/>
</clipPath>
</defs>
</svg>
