<svg width="100" height="100" viewBox="0 0 100 100" fill="none" xmlns="http://www.w3.org/2000/svg">
<path d="M37.8652 42.9262H64.3432" stroke="black" stroke-width="2.11824" stroke-linecap="round"/>
<path d="M49.5061 57.0922L63.6907 57.0922" stroke="black" stroke-width="2.11824" stroke-linecap="round"/>
<path d="M52.6936 49.2807L64.3439 49.2807" stroke="black" stroke-width="2.11824" stroke-linecap="round"/>
<path d="M52.6936 49.2807L64.3439 49.2807" stroke="url(#paint0_linear_59_828)" stroke-width="2.11824" stroke-linecap="round"/>
<path d="M49.152 76.9504H73.9751C74.6335 76.9504 75.2649 76.6888 75.7304 76.2233C76.1959 75.7578 76.4574 75.1264 76.4574 74.4681V34.7511L59.0813 17.375H29.2936C28.6352 17.375 28.0039 17.6365 27.5383 18.1021C27.0728 18.5676 26.8113 19.199 26.8113 19.8573V42.1981" stroke="black" stroke-width="1.86" stroke-linecap="round" stroke-linejoin="round"/>
<path d="M59.0808 17.375V34.7511H76.457" stroke="black" stroke-width="2.11824" stroke-linecap="round" stroke-linejoin="round"/>
<ellipse cx="27.8347" cy="67.1226" rx="10.0305" ry="10.0305" fill="#D9D9D9"/>
<ellipse cx="27.8347" cy="67.1226" rx="10.0305" ry="10.0305" fill="url(#paint1_linear_59_828)"/>
<defs>
<linearGradient id="paint0_linear_59_828" x1="48.4571" y1="49.7807" x2="58.5154" y2="50.3414" gradientUnits="userSpaceOnUse">
<stop stop-color="#1A56DB"/>
<stop offset="1" stop-color="#6BA3FF"/>
</linearGradient>
<linearGradient id="paint1_linear_59_828" x1="27.8347" y1="57.0922" x2="27.8347" y2="77.1531" gradientUnits="userSpaceOnUse">
<stop stop-color="#1A56DB"/>
<stop offset="1" stop-color="#6BA3FF"/>
</linearGradient>
</defs>
</svg>
