<?xml version="1.0" encoding="UTF-8"?><svg id="Layer_1" xmlns="http://www.w3.org/2000/svg" viewBox="0 0 1080 1080"><path d="M980.22,284.83L545.51,21.98c-4.04-2.02-10.11-2.02-14.15,0L100.68,284.83c-4.04,2.02-6.07,6.07-6.07,10.11v491.33c0,4.04,2.02,8.09,6.07,10.11l277,171.86c8.09,6.07,20.22,0,20.22-10.11v-86.94c0-4.04-2.02-8.09-6.07-10.11l-181.97-115.25c-4.04-2.02-6.07-6.07-6.07-10.11l-4.04-374.06c0-4.04,2.02-8.09,6.07-12.13l325.53-202.19c4.04-2.02,10.11-2.02,14.15,0l327.55,202.19c4.04,2.02,6.07,6.07,6.07,12.13l-2.02,370.01c0,4.04-2.02,8.09-6.07,10.11l-181.97,113.23c-4.04,2.02-6.07,6.07-6.07,10.11v86.94c0,10.11,12.13,16.18,20.22,10.11l277-169.84c4.04-2.02,6.07-6.07,6.07-10.11v-487.28c0-4.04-2.02-8.09-6.07-10.11Z" fill="#0d1b3e"/><path d="M705.24,729.66l70.77-46.5c4.04-2.02,6.07-6.07,6.07-10.11l-2.02-242.63c0-4.04-2.02-8.09-6.07-10.11l-228.48-141.53c-4.04-2.02-10.11-2.02-14.15,0l-230.5,143.56c-4.04,2.02-6.07,6.07-6.07,10.11v244.65c0,4.04,2.02,8.09,6.07,10.11l72.79,44.48c8.09,6.07,20.22,0,20.22-10.11l4.04-230.5c0-4.04,2.02-8.09,6.07-10.11l129.4-80.88c4.04-2.02,10.11-2.02,14.15,0l129.4,82.9c4.04,2.02,6.07,6.07,6.07,10.11l2.02,226.46c0,8.09,10.11,14.15,20.22,10.11Z" fill="#1a56db"/><path d="M587.97,547.68l-42.46-24.26c-4.04-2.02-8.09-2.02-12.13,0l-42.46,22.24c-4.04,2.02-6.07,6.07-6.07,12.13v465.04c0,4.04,2.02,10.11,6.07,12.13l40.44,22.24c4.04,2.02,8.09,2.02,12.13,0l42.46-22.24c4.04-2.02,6.07-6.07,6.07-12.13v-463.02c2.02-4.04,0-8.09-4.04-12.13Z" fill="#1a56db"/></svg>