<?xml version="1.0" encoding="UTF-8"?><svg id="Layer_1" xmlns="http://www.w3.org/2000/svg" viewBox="0 0 247 22.9"><path d="M9.7.6H0v1.5l2.7.3c.1,2.8.1,5.5.1,8.3v1.2c0,3,0,5.8-.1,8.5l-2.7.3v1.5h9c6.7,0,11.4-3.9,11.4-10.8.1-6.9-4.1-10.8-10.7-10.8ZM9,20.5h-1.9c-.1-2.8-.1-5.7-.1-8.7v-1.2c0-2.8,0-5.7.1-8.4h2c4.2,0,6.8,3.2,6.8,9.1.1,5.9-2.5,9.2-6.9,9.2Z" fill="#f9f5ef"/><path d="M42.3,20.5h-7.3c-.1-2.8-.1-5.6-.1-8.5h4.2l.4,2.8h1.7v-7.4h-1.7l-.4,2.8h-4.2c0-2.7,0-5.3.1-7.9h6.7l.7,4h2.3l-.2-5.7h-16.5v1.5l2.7.3c.1,2.8.1,5.5.1,8.3v1.4c0,2.8,0,5.6-.1,8.3l-2.7.3v1.5h17.1l.2-5.7h-2.3l-.7,4Z" fill="#f9f5ef"/><path d="M68.1,20.2c-1.1.5-2.3.8-3.4.8-4,0-7.1-3.1-7.1-9.6s3.3-9.6,7.2-9.6c.9,0,1.9.3,2.9.8l.8,4h2.2l-.1-4.9c-2.1-1.2-4.2-1.6-6.3-1.6-6.2,0-11.3,4.2-11.3,11.4s4.7,11.4,11.2,11.4c2.5,0,4.8-.6,6.7-1.6l.1-4.9h-2.2l-.7,3.8Z" fill="#f9f5ef"/><path d="M89.3,0c-5.2,0-10.2,4-10.2,11.4s5,11.4,10.2,11.4,10.2-4,10.2-11.4c-.1-7.5-5.1-11.4-10.2-11.4ZM89.3,21c-3.9,0-5.6-4.5-5.6-9.6s1.6-9.6,5.6-9.6,5.5,4.5,5.5,9.6-1.6,9.6-5.5,9.6Z" fill="#f9f5ef"/><polygon points="123.9 .6 120.3 .6 120.3 2.1 123.9 2.5 123.9 15.3 113.2 .6 107 .6 107 2.1 109.3 2.3 109.7 2.9 109.7 20.3 106.9 20.7 106.9 22.2 109.7 22.2 111.5 22.2 115.1 22.2 115.1 20.7 111.5 20.2 111.5 5.4 123.8 22.3 125.8 22.3 125.8 17.9 125.8 2.5 128.5 2.1 128.5 .6 125.8 .6 123.9 .6" fill="#f9f5ef"/><path d="M143.4.6h-7.1v1.5l2.7.3c.1,2.8.1,5.5.1,8.3v1.4c0,2.8,0,5.6-.1,8.3l-2.7.3v1.5h10v-1.5l-3-.3c-.1-2.7-.1-5.5-.1-8.4h4.4l.4,3.1h1.7v-7.7h-1.7l-.4,2.8h-4.4c0-2.7,0-5.3.1-7.9h6.7l.7,4h2.3l-.2-5.7s-9.4,0-9.4,0Z" fill="#f9f5ef"/><path d="M174.3,20.5h-6.6c-.1-2.7-.1-5.5-.1-7.8v-2c0-2.8,0-5.5.1-8.3l2.9-.3V.6h-9.9v1.5l2.7.3c.1,2.7.1,5.5.1,8.3v1.8c0,2.5,0,5.2-.1,7.9l-2.7.3v1.5h16.5l.3-6.3h-2.3l-.9,4.6Z" fill="#f9f5ef"/><path d="M187.8.6h-2.7v1.5l2.7.3c.1,2.8.1,5.5.1,8.3v1.4c0,2.8,0,5.6-.1,8.3l-2.7.3v1.5h9.8v-1.5l-2.7-.3c-.1-2.8-.1-5.5-.1-8.3v-1.4c0-2.8,0-5.6.1-8.3l2.7-.3V.6h-2.7s-4.4,0-4.4,0Z" fill="#f9f5ef"/><path d="M217.7,20.2c-1.1.5-2.3.8-3.4.8-4,0-7-3.1-7-9.6s3.3-9.6,7.2-9.6c.9,0,1.9.3,2.9.8l.8,4h2.2l-.1-4.9c-2.1-1.2-4.2-1.6-6.3-1.6-6.2,0-11.3,4.2-11.3,11.4s4.7,11.4,11.2,11.4c2.5,0,4.8-.6,6.7-1.6l.1-5h-2.2l-.8,3.9Z" fill="#f9f5ef"/><path d="M239.7,2.3h4.3l.7,4.2h2.3l-.2-5.9h-18.4l-.2,5.9h2.3l.7-4.2h4.3c.1,2.8.1,5.6.1,8.4v1.4c0,2.8,0,5.5-.1,8.3l-3.1.3v1.5h10.4v-1.5l-3.1-.3c-.1-2.8-.1-5.5-.1-8.3v-1.4c.1-2.9.1-5.7.1-8.4Z" fill="#f9f5ef"/></svg>