<svg width="150" height="26" viewBox="0 0 300 52" xmlns="http://www.w3.org/2000/svg" role="img" aria-label="Deconflict"><path d="M44.3,13.5L22.8.5c-.2-.1-.5-.1-.7,0L.8,13.5c-.2.1-.3.3-.3.5v24.3c0,.2.1.4.3.5l13.7,8.5c.4.3,1,0,1-.5v-4.3c0-.2-.1-.4-.3-.5l-9-5.7c-.2-.1-.3-.3-.3-.5l-.2-18.5c0-.2.1-.4.3-.6L22.1,6.7c.2-.1.5-.1.7,0l16.2,10c.2.1.3.3.3.6l-.1,18.3c0,.2-.1.4-.3.5l-9,5.6c-.2.1-.3.3-.3.5v4.3c0,.5.6.8,1,.5l13.7-8.4c.2-.1.3-.3.3-.5V14c0-.2-.1-.4-.3-.5Z" fill="#F9F5EF"/><path d="M30.7,35.5l3.5-2.3c.2-.1.3-.3.3-.5l-.1-12c0-.2-.1-.4-.3-.5l-11.3-7c-.2-.1-.5-.1-.7,0l-11.4,7.1c-.2.1-.3.3-.3.5v12.1c0,.2.1.4.3.5l3.6,2.2c.4.3,1,0,1-.5l.2-11.4c0-.2.1-.4.3-.5l6.4-4c.2-.1.5-.1.7,0l6.4,4.1c.2.1.3.3.3.5l.1,11.2c0,.4.5.7,1,.5Z" fill="#1a56db"/><path d="M24.9,26.5l-2.1-1.2c-.2-.1-.4-.1-.6,0l-2.1,1.1c-.2.1-.3.3-.3.6v23c0,.2.1.5.3.6l2,1.1c.2.1.4.1.6,0l2.1-1.1c.2-.1.3-.3.3-.6v-22.9c.1-.2,0-.4-.2-.6Z" fill="#1a56db"/><path d="M62,15.3h-9.7v1.5l2.7.3c.1,2.8.1,5.5.1,8.3v1.2c0,3,0,5.8-.1,8.5l-2.7.3v1.5h9c6.7,0,11.4-3.9,11.4-10.8.1-6.9-4.1-10.8-10.7-10.8ZM61.3,35.2h-1.9c-.1-2.8-.1-5.7-.1-8.7v-1.2c0-2.8,0-5.7.1-8.4h2c4.2,0,6.8,3.2,6.8,9.1.1,5.9-2.5,9.2-6.9,9.2Z" fill="#F9F5EF"/><path d="M94.6,35.2h-7.3c-.1-2.8-.1-5.6-.1-8.5h4.2l.4,2.8h1.7v-7.4h-1.7l-.4,2.8h-4.2c0-2.7,0-5.3.1-7.9h6.7l.7,4h2.3l-.2-5.7h-16.5v1.5l2.7.3c.1,2.8.1,5.5.1,8.3v1.4c0,2.8,0,5.6-.1,8.3l-2.7.3v1.5h17.1l.2-5.7h-2.3l-.7,4Z" fill="#F9F5EF"/><path d="M120.4,34.9c-1.1.5-2.3.8-3.4.8-4,0-7.1-3.1-7.1-9.6s3.3-9.6,7.2-9.6c.9,0,1.9.3,2.9.8l.8,4h2.2l-.1-4.9c-2.1-1.2-4.2-1.6-6.3-1.6-6.2,0-11.3,4.2-11.3,11.4s4.7,11.4,11.2,11.4c2.5,0,4.8-.6,6.7-1.6l.1-4.9h-2.2l-.7,3.8Z" fill="#F9F5EF"/><path d="M141.6,14.7c-5.2,0-10.2,4-10.2,11.4s5,11.4,10.2,11.4,10.2-4,10.2-11.4c-.1-7.5-5.1-11.4-10.2-11.4ZM141.6,35.7c-3.9,0-5.6-4.5-5.6-9.6s1.6-9.6,5.6-9.6,5.5,4.5,5.5,9.6-1.6,9.6-5.5,9.6Z" fill="#F9F5EF"/><polygon points="176.2 15.3 172.6 15.3 172.6 16.8 176.2 17.2 176.2 30 165.5 15.3 159.3 15.3 159.3 16.8 161.6 17 162 17.6 162 35 159.2 35.4 159.2 36.9 162 36.9 163.8 36.9 167.4 36.9 167.4 35.4 163.8 34.9 163.8 20.1 176.1 37 178.1 37 178.1 32.6 178.1 17.2 180.8 16.8 180.8 15.3 178.1 15.3 176.2 15.3" fill="#F9F5EF"/><path d="M195.7,15.3h-7.1v1.5l2.7.3c.1,2.8.1,5.5.1,8.3v1.4c0,2.8,0,5.6-.1,8.3l-2.7.3v1.5h10v-1.5l-3-.3c-.1-2.7-.1-5.5-.1-8.4h4.4l.4,3.1h1.7v-7.7h-1.7l-.4,2.8h-4.4c0-2.7,0-5.3.1-7.9h6.7l.7,4h2.3l-.2-5.7s-9.4,0-9.4,0Z" fill="#F9F5EF"/><path d="M226.6,35.2h-6.6c-.1-2.7-.1-5.5-.1-7.8v-2c0-2.8,0-5.5.1-8.3l2.9-.3v-1.5h-9.9v1.5l2.7.3c.1,2.7.1,5.5.1,8.3v1.8c0,2.5,0,5.2-.1,7.9l-2.7.3v1.5h16.5l.3-6.3h-2.3l-.9,4.6Z" fill="#F9F5EF"/><path d="M240.1,15.3h-2.7v1.5l2.7.3c.1,2.8.1,5.5.1,8.3v1.4c0,2.8,0,5.6-.1,8.3l-2.7.3v1.5h9.8v-1.5l-2.7-.3c-.1-2.8-.1-5.5-.1-8.3v-1.4c0-2.8,0-5.6.1-8.3l2.7-.3v-1.5h-2.7s-4.4,0-4.4,0Z" fill="#F9F5EF"/><path d="M270,34.9c-1.1.5-2.3.8-3.4.8-4,0-7-3.1-7-9.6s3.3-9.6,7.2-9.6c.9,0,1.9.3,2.9.8l.8,4h2.2l-.1-4.9c-2.1-1.2-4.2-1.6-6.3-1.6-6.2,0-11.3,4.2-11.3,11.4s4.7,11.4,11.2,11.4c2.5,0,4.8-.6,6.7-1.6l.1-5h-2.2l-.8,3.9Z" fill="#F9F5EF"/><path d="M292,17h4.3l.7,4.2h2.3l-.2-5.9h-18.4l-.2,5.9h2.3l.7-4.2h4.3c.1,2.8.1,5.6.1,8.4v1.4c0,2.8,0,5.5-.1,8.3l-3.1.3v1.5h10.4v-1.5l-3.1-.3c-.1-2.8-.1-5.5-.1-8.3v-1.4c.1-2.9.1-5.7.1-8.4Z" fill="#F9F5EF"/></svg>
